<svg xmlns="http://www.w3.org/2000/svg" xmlns:xlink="http://www.w3.org/1999/xlink" width="360" height="249" viewBox="0 0 360 249">
    <defs>
        <path id="a" d="M148.975 258a14.919 14.919 0 0 0 1.822-7.167c0-8.299-6.751-15.027-15.08-15.027-.404 0-.805.016-1.202.048.028-.475.043-.953.043-1.435 0-13.278-10.803-24.043-24.128-24.043s-24.128 10.765-24.128 24.043c0 1.521.142 3.01.413 4.452-.958-.19-1.95-.29-2.964-.29-8.329 0-15.08 6.727-15.08 15.027 0 1.528.229 3.003.654 4.392h-7.164a18.135 18.135 0 0 0 3.262-10.403c0-10.087-8.206-18.264-18.328-18.264-.866 0-1.718.06-2.552.176-.03-14.913-12.17-26.993-27.143-26.993A27.091 27.091 0 0 0 0 208.803V0h451v167.872c-2.751-5.789-6.315-9.28-10.208-9.28-7.418 0-13.641 12.681-15.326 29.769-1.727-1.61-3.599-2.49-5.553-2.49-6.876 0-12.725 10.894-14.885 26.092a27.122 27.122 0 0 0-20.61-9.447c-14.973 0-27.114 12.08-27.144 26.993a18.552 18.552 0 0 0-2.552-.176 18.333 18.333 0 0 0-16.1 9.53 20.837 20.837 0 0 0-12.9-4.444c-1.524 0-3.01.163-4.441.472-3.519-8.938-12.253-15.267-22.47-15.267-13.326 0-24.128 10.764-24.128 24.043 0 1.52.142 3.009.413 4.451-.959-.19-1.95-.29-2.965-.29A15.082 15.082 0 0 0 257.856 258h-108.88zm-26.515 0h-7.297a24.012 24.012 0 0 0 6.317-2.202c.269.764.597 1.5.98 2.202zm-24.284 0a14.9 14.9 0 0 0 .543-2.555 24.018 24.018 0 0 0 6.978 2.555h-7.521zm-66.146 0H0v-7.674a27.091 27.091 0 0 0 17.4 6.287c4.465 0 8.678-1.074 12.393-2.978A18.18 18.18 0 0 0 32.03 258zm396.294 0c3.406-5.327 5.932-13.794 6.915-23.759 1.727 1.61 3.599 2.49 5.553 2.49 3.893 0 7.457-3.492 10.208-9.28V258h-22.676zm-16.823 0h-41.714a18.18 18.18 0 0 0 2.237-4.365 27.105 27.105 0 0 0 12.393 2.978c9.077 0 17.114-4.44 22.042-11.26 1.267 5.112 2.996 9.446 5.042 12.647z"/>
        <linearGradient id="c" x1="50%" x2="50%" y1="0%" y2="100%">
            <stop offset="0%" stop-color="#52B6EF"/>
            <stop offset="100%" stop-color="#228AC8"/>
        </linearGradient>
        <linearGradient id="d" x1="50%" x2="50%" y1="74.777%" y2="1.404%">
            <stop offset="0%" stop-color="#0369AF"/>
            <stop offset="100%" stop-color="#0064AB"/>
        </linearGradient>
        <linearGradient id="e" x1="50%" x2="3.32%" y1="91.43%" y2="0%">
            <stop offset="0%" stop-color="#70CBFF"/>
            <stop offset="100%" stop-color="#48ADE7"/>
        </linearGradient>
        <linearGradient id="f" x1="50%" x2="50%" y1="74.777%" y2="2.907%">
            <stop offset="0%" stop-color="#1876B7"/>
            <stop offset="100%" stop-color="#51ADE2"/>
        </linearGradient>
        <linearGradient id="g" x1="50%" x2="50%" y1="97.232%" y2="0%">
            <stop offset="0%" stop-color="#68B9E8"/>
            <stop offset="100%" stop-color="#389FDA"/>
        </linearGradient>
        <linearGradient id="h" x1="50%" x2="50%" y1="74.777%" y2="2.907%">
            <stop offset="0%" stop-color="#1876B7" stop-opacity=".665"/>
            <stop offset="100%" stop-color="#51ADE2"/>
        </linearGradient>
        <linearGradient id="i" x1="50%" x2="50%" y1="100%" y2="0%">
            <stop offset="0%" stop-color="#0078B5"/>
            <stop offset="100%" stop-color="#0078B4"/>
        </linearGradient>
        <linearGradient id="j" x1="50%" x2="50%" y1="100%" y2="0%">
            <stop offset="0%" stop-color="#0069A5"/>
            <stop offset="100%" stop-color="#006AA7"/>
        </linearGradient>
        <linearGradient id="k" x1="50%" x2="50%" y1="100%" y2="0%">
            <stop offset="0%" stop-color="#E9E9E9"/>
            <stop offset="100%" stop-color="#CFCFCF"/>
        </linearGradient>
        <linearGradient id="l" x1="50%" x2="50%" y1="100%" y2="0%">
            <stop offset="0%" stop-color="#0070B0"/>
            <stop offset="100%" stop-color="#006EAF"/>
        </linearGradient>
        <linearGradient id="m" x1="50%" x2="50%" y1="100%" y2="0%">
            <stop offset="0%" stop-color="#0772AB" stop-opacity="0"/>
            <stop offset="19.84%" stop-color="#006EA9"/>
            <stop offset="100%" stop-color="#0070AB"/>
        </linearGradient>
        <linearGradient id="n" x1="50%" x2="50%" y1="0%" y2="100%">
            <stop offset="0%" stop-color="#0D7BB1"/>
            <stop offset="43.273%" stop-color="#0D7BB1"/>
            <stop offset="100%" stop-color="#0D7BB1" stop-opacity="0"/>
        </linearGradient>
        <linearGradient id="o" x1="50%" x2="50%" y1="100%" y2="0%">
            <stop offset="0%" stop-color="#007FB9"/>
            <stop offset="100%" stop-color="#0070B0"/>
        </linearGradient>
        <linearGradient id="p" x1="50%" x2="50%" y1="100%" y2="0%">
            <stop offset="0%" stop-color="#006AA7" stop-opacity="0"/>
            <stop offset="44.863%" stop-color="#0068A4"/>
            <stop offset="100%" stop-color="#00609F"/>
        </linearGradient>
        <linearGradient id="q" x1="50%" x2="50%" y1="100%" y2="0%">
            <stop offset="0%" stop-color="#006CA7"/>
            <stop offset="100%" stop-color="#0672AC"/>
        </linearGradient>
        <linearGradient id="r" x1="50%" x2="50%" y1="0%" y2="100%">
            <stop offset="0%" stop-color="#046AA5"/>
            <stop offset="55.783%" stop-color="#046AA5"/>
            <stop offset="100%" stop-color="#008DC2" stop-opacity=".073"/>
        </linearGradient>
        <linearGradient id="s" x1="50%" x2="50%" y1="74.777%" y2="2.907%">
            <stop offset="0%" stop-color="#3D9BDC"/>
            <stop offset="100%" stop-color="#51ADE2"/>
        </linearGradient>
        <linearGradient id="t" x1="50%" x2="50%" y1="0%" y2="100%">
            <stop offset="0%" stop-color="#49ADE7"/>
            <stop offset="100%" stop-color="#61BEF3" stop-opacity="0"/>
        </linearGradient>
        <linearGradient id="u" x1="50%" x2="50%" y1="81.62%" y2="0%">
            <stop offset="0%" stop-color="#4AB1EC" stop-opacity="0"/>
            <stop offset="100%" stop-color="#359AD4"/>
        </linearGradient>
    </defs>
    <g fill="none" fill-rule="evenodd">
        <g transform="translate(-34 -18)">
            <mask id="b" fill="#fff">
                <use xlink:href="#a"/>
            </mask>
            <g mask="url(#b)">
                <path fill="url(#c)" d="M415.441 77.402V68.43h-33.888v8.972h-14.608v130.395h14.608v11.364h33.888v-11.364h14.607V77.402h-14.607z" transform="translate(14.92 18.495)"/>
                <path fill="url(#d)" d="M141.686 77.402V68.43h-33.889v8.972H93.19v72.973h-3.794v49.1h66.897V77.401h-14.607z" opacity=".2" transform="translate(14.92 18.495)"/>
                <path fill="url(#e)" d="M50.582 52.434v-20.94h-33.95v162.728h33.95v-11.367h16.975V52.434H50.582z" transform="translate(14.92 18.495)"/>
                <path fill="url(#c)" d="M349.314 184.022h-6.032V36.989h-3.712v147.033h-6.032V36.989h-3.712v147.033h-7.888V28.488h13.763v-11.38h40.524V172.64h-13.763v11.38h-9.436V36.99h-3.712v147.033z" transform="translate(14.92 18.495)"/>
                <path fill="url(#f)" d="M76.023 59.645h3.712v36.22h-3.712z" opacity=".34" transform="translate(14.92 18.495)"/>
                <path fill="url(#d)" d="M314.991 43.76V32.366h-39.465v131.357h39.465v-7.03h6.63V43.76h-6.63z" opacity=".2" transform="translate(14.92 18.495)"/>
                <path fill="url(#g)" d="M302.45 169.226v-41.613h11.6v-6.936h26.912v6.936h11.6v41.613H302.45z" transform="translate(14.92 18.495)"/>
                <path fill="url(#h)" d="M63.959 93.86h25.52v133.624h-25.52z" transform="translate(14.92 18.495)"/>
                <path fill="url(#c)" d="M249.092 12.484h27.375V168.3h-27.375V12.484zm6.96 11.559v139.172h3.711V24.043h-3.712zm8.351 0v139.172h3.712V24.043h-3.712zM26.376 93.86h37.583v133.624H26.376z" transform="translate(14.92 18.495)"/>
                <path fill="#70CBFF" d="M53.359 122.065h3.712v119.29h-3.712zM65.887 122.065h3.712v127.29h-3.712z"/>
                <path fill="url(#f)" d="M362.306 28.667h27.376v155.817h-27.376z" transform="translate(14.92 18.495)"/>
                <path fill="url(#d)" d="M210.114 54.56L200.14 0l-9.974 54.56h-5.725l-22.116 124.375h76.095L216.303 54.56h-6.189z" opacity=".2" transform="translate(14.92 18.495)"/>
                <path fill="url(#i)" d="M0 47.624h26.448v61.957H0z" transform="translate(208.796 107.269)"/>
                <path fill="url(#j)" d="M46.863 23.118H35.727v86.463H83.52V63.806H70.063V23.118H49.647V.86a.86.86 0 0 0-.86-.86h-1.064a.86.86 0 0 0-.86.86v22.258z" transform="translate(208.796 107.269)"/>
                <path fill="url(#k)" d="M83.519 63.806h9.28v45.774h-9.28z" transform="translate(208.796 107.269)"/>
                <path fill="url(#l)" d="M26.448 47.624h9.28v61.957h-9.28z" transform="translate(208.796 107.269)"/>
                <path fill="url(#m)" d="M108.502 123.452h79.807v101.72h-79.807z" transform="translate(14.92 18.495)"/>
                <path fill="url(#n)" d="M136.806 206.677h22.272v23.118h-22.272z" transform="translate(14.92 18.495)"/>
                <path fill="url(#o)" d="M188.309 128.075h16.704v94.785h-16.704z" transform="matrix(-1 0 0 1 408.24 18.495)"/>
                <path fill="#0D7BB1" d="M135.95 155.355h6.496v11.559h-6.496zM135.95 172h6.496v11.559h-6.496zM151.726 155.355h6.496v11.559h-6.496zM151.726 172h6.496v11.559h-6.496zM167.5 155.355h6.497v11.559H167.5zM167.5 172h6.497v11.559H167.5zM183.277 155.355h6.496v11.559h-6.496zM183.277 172h6.496v11.559h-6.496zM135.95 188.646h6.496v11.559h-6.496zM151.726 188.646h6.496v11.559h-6.496zM167.5 188.646h6.497v11.559H167.5zM183.277 188.646h6.496v11.559h-6.496zM135.95 205.29h6.496v11.56h-6.496zM135.95 221.936h6.496v11.559h-6.496zM151.726 205.29h6.496v11.56h-6.496zM167.5 205.29h6.497v11.56H167.5zM183.277 205.29h6.496v11.56h-6.496zM183.277 221.936h6.496v11.559h-6.496z"/>
                <path fill="url(#f)" d="M0 143.796h26.912v82.301H0z" transform="translate(14.92 18.495)"/>
                <g>
                    <path fill="url(#p)" d="M0 35.14h70.527v55.022H0z" transform="translate(200.908 169.688)"/>
                    <path fill="url(#q)" d="M35.263 0l35.264 35.14H0z" transform="translate(200.908 169.688)"/>
                    <path fill="#0670AA" d="M209.26 214.537h5.104v14.796h-5.104z" opacity=".664"/>
                    <path fill="url(#r)" d="M8.352 66.581h10.672v23.581H8.352z" opacity=".664" transform="translate(200.908 169.688)"/>
                    <path fill="#0670AA" d="M225.5 214.537h5.104v14.796H225.5z" opacity=".664"/>
                    <path fill="#0873AC" d="M233.851 183.56h5.104v14.795h-5.104z"/>
                    <path fill="#0670AA" d="M239.883 214.537h9.28v14.796h-9.28zM257.98 214.537h5.103v14.796h-5.104z" opacity=".664"/>
                    <path fill="#056FA9" d="M225.5 236.27h5.104v14.795H225.5zM239.883 236.27h9.28v14.795h-9.28zM257.98 236.27h5.103v14.795h-5.104z" opacity=".664"/>
                </g>
                <g>
                    <path fill="url(#c)" d="M0 35.14h70.527v66.118H0z" transform="translate(271.435 151.194)"/>
                    <path fill="url(#s)" d="M35.263 0l35.264 35.14H0z" transform="translate(271.435 151.194)"/>
                    <path fill="#056EA8" d="M279.787 196.043h5.104v14.796h-5.104zM279.787 217.775h10.672v23.58h-10.672zM296.027 196.043h5.104v14.796h-5.104z"/>
                    <path fill="#0877B2" d="M304.378 165.065h5.104v14.796h-5.104z"/>
                    <path fill="#056EA8" d="M310.41 196.043h9.28v14.796h-9.28z"/>
                    <path fill="#61BEF3" d="M328.506 196.043h5.104v14.796h-5.104z"/>
                    <path fill="#056EA8" d="M296.027 217.775h5.104v14.796h-5.104zM310.41 217.775h9.28v14.796h-9.28z"/>
                    <path fill="url(#t)" d="M57.071 66.581h5.104v14.796h-5.104z" transform="translate(271.435 151.194)"/>
                </g>
                <g>
                    <path fill="url(#c)" d="M0 35.14h70.527v66.581H0z" transform="translate(341.962 132.699)"/>
                    <path fill="url(#s)" d="M35.263 0l35.264 35.14H0z" transform="translate(341.962 132.699)"/>
                    <path fill="#61BEF3" d="M350.314 177.548h5.104v14.796h-5.104z"/>
                    <path fill="url(#t)" d="M8.352 66.581h10.672v23.581H8.352z" transform="translate(341.962 132.699)"/>
                    <path fill="#61BEF3" d="M366.554 177.548h5.104v14.796h-5.104zM374.905 146.57h5.104v14.796h-5.104zM380.937 177.548h9.28v14.796h-9.28z"/>
                    <path fill="url(#t)" d="M24.592 66.581h5.104v14.796h-5.104zM38.975 66.581h9.28v14.796h-9.28z" transform="translate(341.962 132.699)"/>
                </g>
            </g>
        </g>
        <g fill="url(#u)" transform="translate(-44 140)">
            <path d="M54.25 71.34c-.03-15.002-12.162-27.154-27.125-27.154C12.145 44.186 0 56.368 0 71.396c0 15.027 12.144 27.209 27.125 27.209 4.462 0 8.673-1.081 12.385-2.996 2.5 7.162 9.298 12.298 17.291 12.298 10.115 0 18.315-8.225 18.315-18.372s-8.2-18.372-18.315-18.372c-.865 0-1.717.06-2.55.176zM415.924 87.278c-4.925 6.86-12.956 11.327-22.026 11.327-4.462 0-8.673-1.081-12.385-2.996-2.5 7.162-9.298 12.298-17.291 12.298-10.115 0-18.316-8.225-18.316-18.372s8.2-18.372 18.316-18.372c.865 0 1.717.06 2.55.176.03-15.001 12.163-27.153 27.126-27.153 8.24 0 15.622 3.686 20.597 9.503 2.159-15.289 8.003-26.247 14.874-26.247 8.707 0 15.765 17.596 15.765 39.302s-7.058 39.303-15.765 39.303c-5.688 0-10.672-7.51-13.445-18.769zM131.136 97.785a23.949 23.949 0 0 1-11.042 2.68 23.945 23.945 0 0 1-11.704-3.035c-.909 7.476-7.26 13.268-14.958 13.268-8.323 0-15.07-6.768-15.07-15.117 0-8.348 6.747-15.116 15.07-15.116 1.014 0 2.005.1 2.963.292a24.393 24.393 0 0 1-.413-4.478c0-13.358 10.795-24.186 24.112-24.186 13.316 0 24.111 10.828 24.111 24.186 0 .484-.014.965-.042 1.443a15.23 15.23 0 0 1 1.201-.048c8.323 0 15.07 6.768 15.07 15.117 0 8.348-6.747 15.116-15.07 15.116-6.578 0-12.171-4.228-14.228-10.122z"/>
            <path d="M317.37 108.018a23.98 23.98 0 0 1-9.022 1.75 23.945 23.945 0 0 1-11.703-3.036c-.91 7.477-7.26 13.268-14.958 13.268-8.323 0-15.07-6.768-15.07-15.116 0-8.349 6.747-15.117 15.07-15.117 1.014 0 2.004.1 2.962.292a24.393 24.393 0 0 1-.412-4.478c0-13.357 10.795-24.186 24.111-24.186 10.211 0 18.94 6.367 22.455 15.359 1.43-.311 2.916-.475 4.439-.475 11.524 0 20.865 9.37 20.865 20.93s-9.341 20.93-20.865 20.93c-7.581 0-14.218-4.055-17.872-10.121z"/>
        </g>
    </g>
</svg>
