<svg xmlns="http://www.w3.org/2000/svg" width="360" height="257" viewBox="0 0 360 257">
    <defs>
        <linearGradient id="a" x1="50%" x2="50%" y1="2.907%" y2="111.219%">
            <stop offset="0%" stop-color="#002E4E"/>
            <stop offset="100%" stop-color="#51ADE2" stop-opacity="0"/>
        </linearGradient>
        <linearGradient id="b" x1="50%" x2="50%" y1="0%" y2="100%">
            <stop offset="0%" stop-color="#00D6EE"/>
            <stop offset="100%" stop-color="#FCFCFC"/>
        </linearGradient>
    </defs>
    <g fill="none" fill-rule="evenodd">
        <path stroke="#FFF" stroke-linecap="square" d="M-16.288 64.5h374.6M-16.288.5h374.6M-16.288 130.5h374.6M-16.288 193.5h374.6M-16.288 256.5h374.6" opacity=".25"/>
        <path fill="url(#a)" d="M31.875 83.886c11.602 6.149 23.852 12.848 42.905 12.848 35.212 0 35.631-40.411 60.326-40.411 24.696 0 13.597 53.677 48.12 53.677 34.525 0 34.23-108.292 69.851-109.965 35.622-1.672 31.05 56.288 95.243 56.288 29.896 0 47.173-9.735 60.785-19.978-.113 25.317-.481 89.013-1.105 191.089H31.875c-.034-76.331-.034-124.18 0-143.548z" transform="translate(-48 24)"/>
        <path stroke="url(#b)" stroke-width="3" d="M0 73.854c27.591 0 39.568 22.88 74.78 22.88s35.631-40.411 60.326-40.411c24.696 0 13.597 53.677 48.12 53.677 34.525 0 34.23-108.292 69.851-109.965 35.622-1.672 31.05 56.288 95.243 56.288 64.192 0 70.206-44.88 106.68-43.31" transform="translate(-48 24)"/>
    </g>
</svg>
