<svg viewBox="0 0 364 64" width="364" height="64" xmlns="http://www.w3.org/2000/svg"><path fill="#FFF" d="M54.37 63.97h11.8V.17h-13.5L33.13 27.63 13.57.18H0v63.8h11.78V17.6L31.7 45.38h2.33l20.34-27.7V64zm93.76-11.87H113.1V37.7h33.84V26.42h-45.56v37.54h46.75V52.1zM237 63.14l-18.9-21.8c11.88-2.47 15.82-11.3 15.82-20.12 0-11.1-7.77-21.13-22.5-21.22-9.9.1-19.82 0-29.73 0v63.97h11.77V42.62h11.34l18.23 21.35h14v-.82zm-25.58-51.9c7.4 0 10.7 5.13 10.7 10.24 0 5.12-3.2 10.23-10.7 10.23h-17.95V11.26zM277.97 64V0h-11.74v63.97zm54.42 0h11.78V10.95H364V0h-51.44v10.95h19.82z"/><path fill="#30AFE6" d="M101.3 0h46.73v11.42H101.3z"/></svg>
