<?xml version="1.0" encoding="UTF-8"?>
<svg width="19px" height="18px" viewBox="0 0 19 18" version="1.1" xmlns="http://www.w3.org/2000/svg" xmlns:xlink="http://www.w3.org/1999/xlink">
    <!-- Generator: Sketch 49 (51002) - http://www.bohemiancoding.com/sketch -->
    <title>Group 6</title>
    <desc>Created with Sketch.</desc>
    <defs></defs>
    <g id="Screens" stroke="none" stroke-width="1" fill="none" fill-rule="evenodd">
        <g id="network" transform="translate(-304.000000, -671.000000)">
            <g id="Group-6" transform="translate(305.000000, 672.000000)">
                <path d="M9.13514397,4.59538706 C7.17474493,6.55578611 4.23414636,9.49638467 0.313348275,13.4171828 C-0.104449425,13.8349805 -0.104449425,14.5123644 0.313348275,14.9301621 L1.06983793,15.6866517 C1.48763563,16.1044494 2.16501954,16.1044494 2.58281724,15.6866517 C6.46702681,11.8024422 9.38018398,8.88928499 11.3222888,6.9471802 M14.1029059,4.16656311 C14.2281078,4.04136119 14.4226897,3.84677923 14.6866517,3.58281724 C15.1044494,3.16501954 15.1044494,2.48763563 14.6866517,2.06983793 L13.9301621,1.31334828 C13.5123644,0.895550575 12.8349805,0.895550575 12.4171828,1.31334828 C12.1733601,1.55717091 11.9934523,1.73707877 11.8774592,1.85307185" id="mining" stroke="#5F6C82" stroke-width="1.7" stroke-linecap="round" stroke-linejoin="round"></path>
                <path d="M10.3430907,0.432085446 C10.0786388,0.167633502 9.20117685,-0.0246667521 8.38322468,0.00257080773 L6.90219125,0.0518887725 C6.08423908,0.0791263323 5.76373865,0.443787565 6.18633352,0.866382433 L16.1336176,10.8136665 C16.5562124,11.2362613 16.9208737,10.9157609 16.9481112,10.0978087 L16.9974292,8.61677532 C17.0246668,7.79882315 16.8323665,6.92136124 16.5679146,6.65690929 L10.3430907,0.432085446 Z" id="mining-copy" stroke="#00B0DD" stroke-width="2"></path>
            </g>
        </g>
    </g>
</svg>