<?xml version="1.0" encoding="UTF-8"?>
<svg width="30px" height="24px" viewBox="0 0 30 24" version="1.1" xmlns="http://www.w3.org/2000/svg" xmlns:xlink="http://www.w3.org/1999/xlink">
    <g id="Merit-Network" stroke="none" stroke-width="1" fill="none" fill-rule="evenodd">
        <g id="iPhone-7" transform="translate(-48.000000, -485.000000)" stroke="#293D50" fill-rule="nonzero">
            <g id="cup" transform="translate(49.000000, 486.000000)">
                <path d="M17.6029226,20.8286795 C17.2873766,20.1139273 17.1734294,19.5087134 17.1734294,19.5087134 C17.104075,19.1406112 16.7086564,18.9229582 16.2946118,19.0252826 C16.2946118,19.0252826 15.0633249,19.3292185 14.0003293,19.3292185 C12.9378814,19.3292185 11.7077997,19.0256623 11.7077997,19.0256623 C11.2936456,18.9235277 10.8980079,19.1411807 10.8288726,19.5092829 C10.8288726,19.5092829 10.7211706,20.0815593 10.415595,20.7876738 C10.2120239,21.2580055 10.098515,21.4201299 10.098515,21.4201299 C9.87511283,21.7390632 10.0447188,22 10.4753077,22 L17.5252413,22 C17.9559397,22 18.1249979,21.7394429 17.9009383,21.4206994 C17.9008287,21.4206994 17.8027684,21.281356 17.6029226,20.8286795 Z" id="Shape"></path>
                <path d="M20.0786331,0 L7.92126613,0 C7.41260951,0 7,0.411416625 7,0.918910779 L7,8.5 C7,10.8730246 7.70750337,13.0330121 8.99199487,14.5820991 C10.2849522,16.1412255 12.0636883,17 14.0000504,17 C15.9365133,17 17.7151485,16.1412255 19.0080051,14.5820991 C20.2924966,13.0330121 21,10.8730246 21,8.5 L21,0.918910779 C20.9998992,0.411416625 20.5872897,0 20.0786331,0 Z" id="Shape"></path>
                <path d="M6.95365216,1.36556862 C6.34976712,1.13060416 5.68476656,1 4.98659548,1 C2.23696467,1 0,3.01882859 0,5.5 C0,7.98137644 2.23696467,10 4.98659548,10 L7,10 C6.96955583,9.65329415 6.95376576,9.30874112 6.95376576,8.95352652 L6.95376576,7.90695052 L6.95365216,1.36556862 Z" id="Shape"></path>
                <path d="M21,10 L23.0134372,10 C25.762999,10 28,7.98147895 28,5.5 C28,3.01882859 25.7631126,1 23.0134372,1 C22.3152548,1 21.6502434,1.13060416 21.0464622,1.36556862 L21.0464622,7.906848 L21.0464622,8.953424 C21.0463486,9.30874112 21.0303311,9.65329415 21,10 Z" id="Shape"></path>
            </g>
        </g>
    </g>
</svg>