<svg xmlns="http://www.w3.org/2000/svg" xmlns:xlink="http://www.w3.org/1999/xlink" version="1.1" id="Capa_1" x="0px" y="0px" viewBox="0 0 512 512" style="enable-background:new 0 0 512 512;" xml:space="preserve">
<path style="fill:#96695A;" d="M355.862,132.129v-24.774c0,0,44.387-30.94,49.548-62.624c2.751-16.886-4.817-35.785-28.903-35.785  c-19.613,0-24.43,11.928-44.043,11.928C307.69,20.874,298.055,0,256.765,0s-50.924,20.874-75.699,20.874  c-19.613,0-24.43-11.928-44.043-11.928c-24.086,0-31.654,18.899-28.903,35.785c5.161,31.684,49.548,62.624,49.548,62.624  l-1.166,24.774c-23.224,38.55-82.585,163.48-90.361,300.864c-1.126,19.892,10.27,38.292,28.266,46.991  C123.895,494.239,176.573,512,256,512h0.765c79.107,0,131.573-17.761,160.942-32.016c17.924-8.699,29.274-27.099,28.152-46.991  C438.114,295.609,378.992,170.679,355.862,132.129z"/>
<g>
	<path style="fill:#825A50;" d="M312.073,148.645h53.002c-3.448-6.54-6.574-12.116-9.213-16.516v-16.516H212.889   c-28.465-17.705-52.528-51.368-53.711-53.044c-2.629-3.726-1.742-8.875,1.984-11.504c3.734-2.637,8.879-1.742,11.508,1.976   c0.195,0.274,12.228,17.15,28.427,32.475c3.088,2.921,8.04-0.58,6.184-4.404c-5.16-10.63-9.858-23.439-11.004-36.38   c-0.915-10.333,0.303-21.376,4.36-28.424c-6.003,2.653-12.096,4.568-19.57,4.568c-19.613,0-24.43-11.928-44.043-11.928   c-24.086,0-31.654,18.899-28.903,35.785c5.161,31.684,49.548,62.624,49.548,62.624l-1.166,24.774   c-23.22,38.544-82.567,163.442-90.358,300.8c-1.13,19.924,10.259,38.348,28.224,47.037C123.849,494.224,176.539,512,256,512h0.765   c5.212,0,10.292-0.087,15.273-0.235c-40.527-1.241-67.785-18.055-83.216-31.781c-9.78-8.699-15.974-27.099-15.362-46.991   c3.342-108.639,24.207-209.449,39.035-265.948c2.857-10.886,12.695-18.4,23.949-18.4h57.732c2.676,5.846,5.219,12.653,6.807,20.266   c0.806,3.895,4.242,6.573,8.073,6.573c0.556,0,1.129-0.056,1.694-0.177c4.468-0.927,7.331-5.298,6.395-9.766   C315.874,159.445,314.065,153.82,312.073,148.645z"/>
	<path style="fill:#825A50;" d="M256,123.871c-1.927,0-3.855-0.665-5.419-2.028c-3.444-2.992-3.806-8.206-0.815-11.649   c15.056-17.315,22.718-44.032,22.79-44.302c1.242-4.375,5.806-6.952,10.185-5.71c4.387,1.234,6.952,5.79,5.718,10.177   c-0.347,1.238-8.694,30.512-26.226,50.673C260.597,122.911,258.306,123.871,256,123.871z"/>
</g>
<g>
	<path style="fill:#AA785F;" d="M362.718,233.056c-4.081,0-7.944-2.435-9.573-6.452c-1.879-4.653-3.742-9.153-5.589-13.492   c-2.234-5.242,0.21-11.306,5.46-13.54c5.242-2.21,11.306,0.218,13.54,5.46c1.895,4.452,3.806,9.065,5.734,13.831   c2.137,5.29-0.419,11.306-5.702,13.444C365.314,232.815,364.008,233.056,362.718,233.056z"/>
	<path style="fill:#AA785F;" d="M399.266,349.944c-4.734,0-8.992-3.266-10.065-8.073c-5.879-26.331-13.573-53.274-22.879-80.081   c-1.871-5.387,0.976-11.266,6.363-13.137c5.395-1.863,11.274,0.976,13.137,6.363c9.565,27.548,17.484,55.258,23.524,82.355   c1.242,5.565-2.258,11.081-7.823,12.323C400.766,349.863,400.008,349.944,399.266,349.944z"/>
</g>
<g>
	<path style="fill:#E1A546;" d="M223.726,280.774c-3.677,0-7.032-2.468-7.992-6.194c-26.613-103.266,40.694-155.157,43.573-157.315   c3.645-2.746,8.823-1.996,11.556,1.649c2.734,3.645,2,8.81-1.637,11.548c-2.54,1.935-61.258,47.794-37.492,139.988   c1.137,4.419-1.524,8.919-5.935,10.065C225.105,280.694,224.411,280.774,223.726,280.774z"/>
	<path style="fill:#E1A546;" d="M107.347,231.226c-1.863,0-3.734-0.629-5.282-1.911c-3.5-2.927-3.976-8.129-1.056-11.637   C132.79,179.565,194,115.613,246.839,115.613c4.565,0,8.258,3.698,8.258,8.258c0,4.56-3.694,8.258-8.258,8.258   c-47.831,0-109.04,67.226-133.137,96.129C112.064,230.218,109.718,231.226,107.347,231.226z"/>
</g>
<path style="fill:#FFDC64;" d="M359.226,132.129H152.774c-6.841,0-12.387-5.546-12.387-12.387l0,0  c0-6.841,5.546-12.387,12.387-12.387h206.452c6.841,0,12.387,5.546,12.387,12.387l0,0  C371.613,126.583,366.067,132.129,359.226,132.129z"/>
<path style="fill:#FFC850;" d="M247.742,119.742c0-6.841,5.546-12.387,12.387-12.387H152.774c-6.841,0-12.387,5.546-12.387,12.387  s5.546,12.387,12.387,12.387h107.355C253.288,132.129,247.742,126.583,247.742,119.742z"/>
<g>
	<circle style="fill:#FFDC64;" cx="223.73" cy="272.52" r="16.516"/>
	<circle style="fill:#FFDC64;" cx="107.36" cy="222.97" r="16.516"/>
</g>
<g>
</g>
<g>
</g>
<g>
</g>
<g>
</g>
<g>
</g>
<g>
</g>
<g>
</g>
<g>
</g>
<g>
</g>
<g>
</g>
<g>
</g>
<g>
</g>
<g>
</g>
<g>
</g>
<g>
</g>
</svg>