<svg xmlns="http://www.w3.org/2000/svg" xmlns:xlink="http://www.w3.org/1999/xlink" version="1.1" id="Capa_1" x="0px" y="0px" viewBox="0 0 512 512" style="enable-background:new 0 0 512 512;" xml:space="preserve">
<path style="fill:#092A40;" d="M512,307.261V204.739l-39.919-11.604c-4.588-15.803-10.901-31.037-18.842-45.466l20.027-36.442  l-72.493-72.494L364.33,58.761c-14.43-7.941-29.663-14.254-45.466-18.843L307.261,0H256L136,256l120,256h51.261l11.604-39.918  c15.803-4.588,31.036-10.902,45.467-18.843l36.442,20.026l72.493-72.493L453.24,364.33c7.941-14.429,14.254-29.663,18.842-45.466  L512,307.261z"/>
<path style="fill:#235C81;" d="M204.739,0l-11.604,39.918C177.333,44.506,162.1,50.82,147.67,58.761l-36.443-20.027l-72.493,72.494  l20.027,36.442c-7.94,14.43-14.254,29.664-18.843,45.466L0,204.74v102.521l39.918,11.604c4.588,15.802,10.902,31.036,18.843,45.466  l-20.027,36.442l72.493,72.493l36.442-20.026c14.431,7.941,29.664,14.254,45.467,18.843L204.739,512H256V0H204.739z"/>
<g>
	<path style="fill:#5A7587;" d="M256,76L153.885,256l177.119,163.62C392.915,391.127,436,328.5,436,256   C436,156.748,355.252,76,256,76z"/>
	<path style="fill:#5A7587;" d="M256,76c-99.252,0-180,80.748-180,180c0,72.501,43.086,135.128,104.997,163.62H256V76z"/>
</g>
<path style="fill:#FFCE47;" d="M396,256c0-77.196-62.804-140-140-140l-79.423,140L256,396C333.196,396,396,333.196,396,256z"/>
<path style="fill:#FFE290;" d="M256,116c-77.196,0-140,62.804-140,140s62.804,140,140,140V116z"/>
<polygon style="fill:#092A40;" points="290.286,211.757 256,151.757 226,256.757 "/>
<polygon style="fill:#235C81;" points="256,151.757 221.715,211.757 256,256.757 "/>
<polygon style="fill:#FFF5D9;" points="211,328.008 331,283.007 290.286,211.757 256,211.757 "/>
<polygon style="fill:#FFFFFF;" points="256,211.757 221.715,211.757 181,283.008 256,328.008 "/>
<path style="fill:#45A2E0;" d="M212.823,359.504L256,436c26.752,0,52.155-5.875,75-16.389V283.007h-75L212.823,359.504z"/>
<path style="fill:#4EB9FF;" d="M181,283.008v136.603C203.845,430.125,229.248,436,256,436V283.008H181z"/>
<g>
</g>
<g>
</g>
<g>
</g>
<g>
</g>
<g>
</g>
<g>
</g>
<g>
</g>
<g>
</g>
<g>
</g>
<g>
</g>
<g>
</g>
<g>
</g>
<g>
</g>
<g>
</g>
<g>
</g>
</svg>