<svg xmlns="http://www.w3.org/2000/svg" xmlns:xlink="http://www.w3.org/1999/xlink" version="1.1" id="Capa_1" x="0px" y="0px" viewBox="0 0 511.999 511.999" style="enable-background:new 0 0 511.999 511.999;" xml:space="preserve">
<path style="fill:#B35C4B;" d="M472.695,310.702L421.996,429.2l-104.998-2.699L197.001,423.5l-29.999-121.498  c13.5-17.999,33.599-28.499,55.498-29.999c17.1-36.3,54-59.999,94.499-59.999s77.399,23.699,94.499,59.999  C436.996,273.804,460.096,288.203,472.695,310.702z"/>
<path style="fill:#8B432D;" d="M472.695,310.702L421.996,429.2l-104.998-2.699V212.005c40.498,0,77.399,23.699,94.499,59.999  C436.996,273.804,460.096,288.203,472.695,310.702z"/>
<path style="fill:#FEDBAB;" d="M505.995,350.002l-86.997,125.998c-16.8,22.5-43.8,35.999-86.999,35.999H60.004l-29.999-15V344.302  l15-12.299h24.3c9.6,0,20.9-3.6,28.399-9.901c19.501-17.399,44.098-25.799,68.698-25.799c34.5,0,54.9,12.599,77.098,32.099  c2.701,2.1,6.901,3.6,9.901,3.6h93.598c16.5,0,29.999,13.5,29.999,29.999c0,16.5-13.5,29.999-29.999,29.999c0,0-13.2,0-29.999,0H227  c-8.401,0-15,6.599-15,15c0,8.401,6.599,15,15,15c0,0,56.699,0,89.998,0h39.9c5.7,0,16.5-3.6,22.2-9.6l80.998-100.798  c10.199-11.1,27.298-12.9,39.599-3.9C513.194,317.603,515.895,336.802,505.995,350.002z"/>
<path style="fill:#FD3C65;" d="M60.004,511.999H15.004c-8.284,0-15-6.716-15-15V317.003c0-8.284,6.716-15,15-15h15  c16.569,0,29.999,13.431,29.999,29.999V511.999z"/>
<g>
	<path style="fill:#FEC478;" d="M346.998,392.002c0,0-13.2,0-29.999,0v-59.999h29.999c16.5,0,29.999,13.5,29.999,29.999   C376.997,378.502,363.498,392.002,346.998,392.002z"/>
	<path style="fill:#FEC478;" d="M505.995,350.002l-86.997,125.998c-16.8,22.5-43.8,35.999-86.999,35.999h-15V422h39.9   c5.7,0,16.5-3.6,22.2-9.6l80.998-100.798c10.199-11.1,27.298-12.9,39.599-3.9C513.194,317.603,515.895,336.802,505.995,350.002z"/>
</g>
<path style="fill:#7FBF00;" d="M406.997,182.006h-59.999c-8.291,0-15-6.709-15-15v-29.999c0-57.89,47.108-106.998,104.998-106.998  c15.117,0,29.911-6.123,40.604-16.816l8.789-8.789c4.307-4.292,10.752-5.596,16.348-3.252c5.61,2.314,9.258,7.793,9.258,13.857  v61.999C511.995,134.897,464.887,182.006,406.997,182.006z"/>
<path style="fill:#6ECD24;" d="M286.999,182.006H227c-57.89,0-104.998-47.108-104.998-104.998V15.009  c0-6.064,3.647-11.543,9.258-13.857c5.64-2.329,12.041-1.025,16.348,3.252l8.789,8.789c10.693,10.693,25.488,16.816,40.604,16.816  c57.89,0,104.998,49.108,104.998,106.998v29.999C301.999,175.297,295.29,182.006,286.999,182.006z"/>
<path style="fill:#66BD21;" d="M431.896,118.407l-73.8,62.998c-16.5,14.401-26.099,35.1-26.099,57v48.599c0,8.401-6.599,15-15,15  c-8.401,0-15-6.599-15-15v-48.599c0-21.899-9.6-42.598-26.099-57l-73.8-62.998c-6.299-5.4-6.899-15-1.5-21.301  c5.4-6.299,15-6.899,21.301-1.5l73.499,62.998c8.699,7.8,15.899,17.1,21.599,27c5.7-9.901,12.9-19.2,21.599-27l73.499-62.998  c6.301-5.4,15.901-4.799,21.301,1.5C438.796,103.407,438.195,113.007,431.896,118.407z"/>
<path style="fill:#5DAD1D;" d="M431.896,118.407l-73.8,62.998c-16.5,14.401-26.099,35.1-26.099,57v48.599c0,8.401-6.599,15-15,15  V185.606c5.7-9.901,12.9-19.2,21.599-27l73.499-62.998c6.301-5.4,15.901-4.799,21.301,1.5  C438.796,103.407,438.195,113.007,431.896,118.407z"/>
<path style="fill:#66BD21;" d="M349.997,321.504c-1.8,0.599-3.3,0.899-5.099,0.899c-6,0-11.999-3.9-14.099-10.199  c-1.201-3.9-5.7-10.201-13.801-10.201s-12.599,6.301-13.801,10.201c-2.699,7.798-11.1,11.999-19.199,9.3  c-7.8-2.701-12.001-11.4-9.3-19.2c5.4-15,20.4-30.299,42.298-30.299s36.898,15.3,42.298,30.299  C361.998,310.103,357.797,318.803,349.997,321.504z"/>
<path style="fill:#5DAD1D;" d="M349.997,321.504c-1.8,0.599-3.3,0.899-5.099,0.899c-6,0-11.999-3.9-14.099-10.199  c-1.201-3.9-5.7-10.201-13.801-10.201v-29.999c21.899,0,36.898,15.3,42.298,30.299C361.998,310.103,357.797,318.803,349.997,321.504  z"/>
<g>
</g>
<g>
</g>
<g>
</g>
<g>
</g>
<g>
</g>
<g>
</g>
<g>
</g>
<g>
</g>
<g>
</g>
<g>
</g>
<g>
</g>
<g>
</g>
<g>
</g>
<g>
</g>
<g>
</g>
</svg>