<?xml version="1.0" encoding="UTF-8"?>
<svg width="23px" height="22px" viewBox="0 0 23 22" version="1.1" xmlns="http://www.w3.org/2000/svg" xmlns:xlink="http://www.w3.org/1999/xlink">
    <!-- Generator: Sketch 46.2 (44496) - http://www.bohemiancoding.com/sketch -->
    <title>referrals-icon</title>
    <desc>Created with Sketch.</desc>
    <defs></defs>
    <g id="Merit-Network" stroke="none" stroke-width="1" fill="none" fill-rule="evenodd">
        <g id="Merit-Netwok" transform="translate(-47.000000, -172.000000)" stroke="#FFFFFF">
            <g id="referrals-icon" transform="translate(48.000000, 173.000000)">
                <g id="Group">
                    <path d="M9.00465116,11.7647059 C6.05027642,11.7647059 3.83891808,12.4099217 2.12290401,12.9853844 C0.849161603,13.4039028 0,14.5722665 0,15.8975747 L0,19.9606904 L15.2926829,19.9606904 L21.9463415,19.9606904" id="Shape"></path>
                    <path d="M21.4911376,11.7647059 C18.5367629,11.7647059 16.3254046,12.4099217 14.6093905,12.9853844 C13.3356481,13.4039028 12.4864865,14.5722665 12.4864865,15.8975747 L12.4864865,19.9606904 L19.6271636,19.9606904" id="Shape" transform="translate(16.988812, 15.862698) scale(-1, 1) translate(-16.988812, -15.862698) "></path>
                    <path d="M5.35135135,6.12973409 L5.35135135,5.10521763 C5.35135135,2.29213853 7.83410598,0 10.8768805,0 C13.9383223,0 16.4024096,2.27477384 16.4024096,5.10521763 L16.4024096,6.12973409 C16.4210769,8.94281319 13.9383223,12.2421035 10.8768805,12.2421035 C7.81543865,12.2421035 5.35135135,8.94281319 5.35135135,6.12973409 Z" id="Shape"></path>
                </g>
            </g>
        </g>
    </g>
</svg>