<?xml version="1.0" encoding="UTF-8"?>
<svg width="15px" height="15px" viewBox="0 0 15 15" version="1.1" xmlns="http://www.w3.org/2000/svg" xmlns:xlink="http://www.w3.org/1999/xlink">
    <!-- Generator: Sketch 47.1 (45422) - http://www.bohemiancoding.com/sketch -->
    <title>ambassador_dark</title>
    <desc>Created with Sketch.</desc>
    <defs></defs>
    <g id="V4" stroke="none" stroke-width="1" fill="none" fill-rule="evenodd">
        <g id="Icons" transform="translate(-318.000000, -747.000000)">
            <g id="ambassador_dark" transform="translate(306.000000, 735.000000)">
                <g id="ambassador" transform="translate(13.000000, 13.000000)">
                    <path d="M4.8125,8.37380944 L5.95603559,12.1855947 L5.95603559,12.1855947 C6.0254659,12.4170291 5.89413566,12.6609281 5.66270129,12.7303584 C5.62191753,12.7425936 5.57956609,12.7488094 5.53698659,12.7488094 L3.27602682,12.7488094 L3.27602682,12.7488094 C2.88961963,12.7488094 2.54896211,12.4953498 2.43792882,12.1252388 L1.3125,8.37380944 L1.3125,8.37380944" id="Rectangle-7" stroke="#95E9FF" stroke-width="2"></path>
                    <path d="M7.53524788,2.37380944 L0.875,2.37380944 L0.875,2.37380944 C0.391750844,2.37380944 -5.91809532e-17,2.76556028 0,3.24880944 L0,7.62380944 C5.91809532e-17,8.10705859 0.391750844,8.49880944 0.875,8.49880944 L7.53524788,8.49880944 L12.5015312,10.8310226 C12.5597196,10.8583484 12.6232148,10.8725153 12.6875,10.8725153 C12.9291246,10.8725153 13.125,10.6766398 13.125,10.4350153 L13.125,0.437603624 C13.125,0.373318466 13.1108332,0.309823176 13.0835074,0.251634837 C12.9807997,0.0329259894 12.7202401,-0.0611115002 12.5015312,0.0415962249 L12.5015312,0.0415962249 L7.53524788,2.37380944 Z" stroke="#FFFFFF" stroke-width="1.7" stroke-linecap="round" stroke-linejoin="round"></path>
                </g>
            </g>
        </g>
    </g>
</svg>