<?xml version="1.0" encoding="UTF-8"?>
<svg width="20px" height="20px" viewBox="0 0 20 20" version="1.1" xmlns="http://www.w3.org/2000/svg" xmlns:xlink="http://www.w3.org/1999/xlink">
    <!-- Generator: Sketch 47.1 (45422) - http://www.bohemiancoding.com/sketch -->
    <title>history</title>
    <desc>Created with Sketch.</desc>
    <defs></defs>
    <g id="V4-numbers" stroke="none" stroke-width="1" fill="none" fill-rule="evenodd">
        <g id="Icons" transform="translate(-1014.000000, -503.000000)" fill="#FFFFFF">
            <g id="history" transform="translate(1004.000000, 493.000000)">
                <path d="M21.0919189,19.196106 L20.7502918,13.7794388 C20.7342539,13.3443983 20.3769254,13 19.9415894,13 C19.5082996,13 19.1546187,13.3466078 19.1458669,13.7798091 C18.9316382,17.3412759 18.8232625,19.3100586 18.8207397,19.6861572 C18.8169556,20.2503052 19.2089754,20.8344737 19.743103,21.2776489 L24.0413818,24.2255859 C24.4273218,24.5164125 25.0138181,24.6666602 25.3461914,24.2255859 C25.6785647,23.7845117 25.4459985,23.2257631 25.0600586,22.9349365 L21.0919189,19.196106 Z M20,30 C14.4771525,30 10,25.5228475 10,20 C10,14.4771525 14.4771525,10 20,10 C25.5228475,10 30,14.4771525 30,20 C30,25.5228475 25.5228475,30 20,30 Z" id="Combined-Shape"></path>
            </g>
        </g>
    </g>
</svg>