<?xml version="1.0" encoding="UTF-8"?>
<svg width="20px" height="20px" viewBox="0 0 20 20" version="1.1" xmlns="http://www.w3.org/2000/svg" xmlns:xlink="http://www.w3.org/1999/xlink">
    <!-- Generator: Sketch 47.1 (45422) - http://www.bohemiancoding.com/sketch -->
    <title>main</title>
    <desc>Created with Sketch.</desc>
    <defs></defs>
    <g id="V4-numbers" stroke="none" stroke-width="1" fill="none" fill-rule="evenodd">
        <g id="Icons" transform="translate(-1014.000000, -330.000000)" fill="#FFFFFF">
            <g id="main" transform="translate(1004.000000, 320.000000)">
                <path d="M13.4416778,14.6067491 L27.0588235,14.6067491 C28.6831904,14.6067491 30,15.9235586 30,17.5479255 L30,27.0588235 C30,28.6831904 28.6831904,30 27.0588235,30 L12.9411765,30 C11.3168096,30 10,28.6831904 10,27.0588235 L10,17.5479255 L10,17.5479255 C10,17.3869616 10.0129304,17.2290177 10.0378092,17.0750759 C10.0378092,16.1334937 10.0378092,15.3246371 10.0378092,14.6485059 C10.0378092,13.441315 10.0378092,12.66589 11.4889706,12.375471 C12.940132,12.085052 22.5121156,10.4947417 24.5189255,10.1022272 C26.5257353,9.70971267 27.6472677,10.5045546 27.6472677,11.5142356 C27.6472677,12.1873563 27.6472677,12.6953982 27.6472677,13.0383612 L10.9420956,13.8135116 C10.9420956,14.3701745 11.2516711,14.6485059 11.8708222,14.6485059 C12.4899733,14.6485059 13.0135918,14.5924465 13.4416778,14.4803276 L13.4416778,14.6067491 Z M26.7914439,23.9068382 C27.6774622,23.9068382 28.3957219,23.1889431 28.3957219,22.3033745 C28.3957219,21.417806 27.6774622,20.6999109 26.7914439,20.6999109 C25.9054255,20.6999109 25.1871658,21.417806 25.1871658,22.3033745 C25.1871658,23.1889431 25.9054255,23.9068382 26.7914439,23.9068382 Z" id="Combined-Shape"></path>
            </g>
        </g>
    </g>
</svg>