<?xml version="1.0" encoding="UTF-8"?>
<svg width="18px" height="18px" viewBox="0 0 18 18" version="1.1" xmlns="http://www.w3.org/2000/svg" xmlns:xlink="http://www.w3.org/1999/xlink">
    <!-- Generator: Sketch 47.1 (45422) - http://www.bohemiancoding.com/sketch -->
    <title>minig_dark</title>
    <desc>Created with Sketch.</desc>
    <defs></defs>
    <g id="V4" stroke="none" stroke-width="1" fill="none" fill-rule="evenodd">
        <g id="Icons" transform="translate(-317.000000, -689.000000)">
            <g id="minig_dark" transform="translate(306.000000, 678.000000)">
                <g id="mining" transform="translate(12.000000, 12.000000)">
                    <path d="M8.96718363,4.80507425 C7.04282882,6.72942906 4.15629661,9.61596127 0.307586999,13.4646709 C-0.102529,13.8747869 -0.102529,14.5397163 0.307586999,14.9498323 L1.0501677,15.692413 C1.4602837,16.102529 2.12521312,16.102529 2.53532912,15.692413 C6.34812293,11.8796192 9.20771829,9.02002382 11.1141152,7.11362692 M13.8436074,4.38413473 C13.9665073,4.26123479 14.1575117,4.07023046 14.4166204,3.81112171 L14.4166204,3.81112171 C14.8267364,3.40100572 14.8267364,2.7360763 14.4166204,2.3259603 L13.6740397,1.5833796 C13.2639237,1.1732636 12.5989943,1.1732636 12.1888783,1.5833796 C11.9495386,1.82271927 11.7729386,1.99931931 11.6590782,2.11317972" stroke="#FFFFFF" stroke-width="1.7" stroke-linecap="round" stroke-linejoin="round"></path>
                    <path d="M9.5396636,0.419326329 C9.2830207,0.162683426 8.4314695,-0.0239383638 7.63767076,0.00249489395 L6.200371,0.050356541 C5.40657225,0.0767897987 5.09553594,0.430682894 5.50565194,0.840798893 L15.1592011,10.4943481 C15.5693171,10.9044641 15.9232102,10.5934277 15.9496435,9.799629 L15.9975051,8.36232924 C16.0239384,7.5685305 15.8373166,6.7169793 15.5806737,6.4603364 L9.5396636,0.419326329 Z" id="mining-copy" stroke="#95E9FF" stroke-width="2"></path>
                </g>
            </g>
        </g>
    </g>
</svg>