<?xml version="1.0" encoding="utf-8"?>
<!-- Generator: Adobe Illustrator 22.0.1, SVG Export Plug-In . SVG Version: 6.00 Build 0)  -->
<svg version="1.1" id="Layer_1" xmlns="http://www.w3.org/2000/svg" xmlns:xlink="http://www.w3.org/1999/xlink" x="0px" y="0px"
	 viewBox="0 0 14 14" style="enable-background:new 0 0 14 14;" xml:space="preserve">
<style type="text/css">
	.st0{clip-path:url(#SVGID_2_);}
	.st1{clip-path:url(#SVGID_4_);fill:#FFFFFF;}
</style>
<g>
	<defs>
		<path id="SVGID_1_" d="M3,0h9c0.6,0,1,0.4,1,1s-0.4,1-1,1H3C2.4,2,2,1.6,2,1S2.4,0,3,0z M14,7H8.5C7.7,7,7,7.7,7,8.5
			S7.7,10,8.5,10H14v2c0,1.1-0.9,2-2,2H2c-1.1,0-2-0.9-2-2V5c0-1.1,0.9-2,2-2h10c1.1,0,2,0.9,2,2V7z"/>
	</defs>
	<clipPath id="SVGID_2_">
		<use xlink:href="#SVGID_1_"  style="overflow:visible;"/>
	</clipPath>
	<g class="st0">
		<defs>
			<rect id="SVGID_3_" x="-30" y="-98" width="1200" height="800"/>
		</defs>
		<clipPath id="SVGID_4_">
			<use xlink:href="#SVGID_3_"  style="overflow:visible;"/>
		</clipPath>
		<rect x="-5" y="-5" class="st1" width="24" height="24"/>
	</g>
</g>
</svg>
