<svg xmlns="http://www.w3.org/2000/svg" viewBox="0 0 311 214">

  <g fill="none" fill-rule="evenodd" stroke="#343434" stroke-width="12">
    <path d="M50.868 68c-16.36 0-28.608 3.78-38.11 7.15C5.702 77.6 1 84.442 1 92.203V116h58"/>
    <path d="M40 39.555V33.11C40 15.418 53.03 1 69 1c16.067 0 29 14.308 29 32.11v6.445C98.096 57.248 85.066 78 69 78c-16.068 0-29-20.752-29-38.445zM260.132 78c16.36 0 28.608 3.78 38.11 7.15C305.298 87.6 310 94.442 310 102.203V126h-58M291 39.555V33.11C291 15.418 277.97 1 262 1c-16.067 0-29 14.308-29 32.11v6.445C232.904 57.248 245.934 78 262 78c16.068 0 29-20.752 29-38.445zM137.995 141.407c-25.918 0-45.317 5.58-60.37 10.56C66.448 155.586 59 165.692 59 177.156V212.3h192.53"/>
    <path d="M173.005 141.407c25.918 0 45.317 5.58 60.37 10.56 11.176 3.62 18.625 13.726 18.625 25.19V212.3h-62.643"/>
    <path d="M108.372 93.022V84.16c0-24.333 21.78-44.16 48.474-44.16 26.857 0 48.474 19.677 48.474 44.16v8.862c.164 24.333-21.617 52.872-48.474 52.872-26.857 0-48.474-28.54-48.474-52.872z"/>
  </g>
</svg>
