<?xml version="1.0"?>
<svg xmlns="http://www.w3.org/2000/svg" xmlns:xlink="http://www.w3.org/1999/xlink" version="1.1" id="Capa_1" x="0px" y="0px" viewBox="0 0 468.293 468.293" style="enable-background:new 0 0 468.293 468.293;" xml:space="preserve" width="512px" height="512px" class=""><g transform="matrix(1 0 0 1 2.84217e-14 0)"><g>
	<path style="fill:#FF7053" d="M179.201,291.318h-14.12c1.972,3.935,3.186,8.31,3.186,13.002c0,16.132-13.123,29.255-29.255,29.255   c-3.205,0-6.235-0.644-9.123-1.601v13.585c2.942,0.651,5.989,1.019,9.123,1.019c23.3,0,42.258-18.958,42.258-42.258   C181.269,299.783,180.531,295.419,179.201,291.318z" data-original="#2F4859" class="active-path" data-old_color="#ff7053"/>
	<path style="fill:#FF7053" d="M380.418,167.332v123.031c28.062-6.432,49.015-31.503,49.015-61.515   C429.433,198.835,408.48,173.764,380.418,167.332z" data-original="#2F4859" class="active-path" data-old_color="#ff7053"/>
</g><polygon style="fill:#425F73" points="62.094,295.362 84.283,411.486 143.753,411.486 143.753,295.362 " data-original="#E56353" class="" data-old_color="#425f73"/><path style="fill:#FF7053" d="M20.279,208.57C9.079,208.57,0,217.648,0,228.848c0,11.2,9.079,20.279,20.279,20.279  c1.985,0,3.865-0.374,5.678-0.906v-38.745C24.143,208.943,22.264,208.57,20.279,208.57z" data-original="#2F4859" class="active-path" data-old_color="#ff7053"/><path style="fill:#425F73" d="M60.836,180.686H40.558c-11.2,0-20.279,9.08-20.279,20.28v55.764c0,11.2,9.079,20.28,20.279,20.28  h20.278V180.686z" data-original="#E56353" class="" data-old_color="#425f73"/><rect x="122.131" y="152.058" style="fill:#FCD578" width="43.258" height="153.581" data-original="#D5D6DB" class="" data-old_color="#fcd578"/><path style="fill:#FF7053" d="M42.811,169.904v117.889c0,9.856,7.99,17.846,17.846,17.846H162.51V152.058H60.657  C50.801,152.058,42.811,160.048,42.811,169.904z" data-original="#2F4859" class="active-path" data-old_color="#ff7053"/><polygon style="fill:#FCD578" points="362.919,72.645 162.51,152.058 162.51,305.639 362.919,385.051 " data-original="#D5D6DB" class="" data-old_color="#fcd578"/><g>
	<path style="fill:#425F73" d="M372.762,56.807c-9.709,0-17.58,7.871-17.58,17.58V383.31c0,9.709,7.871,17.58,17.58,17.58   c9.709,0,17.58-7.871,17.58-17.58V74.387C390.342,64.678,382.471,56.807,372.762,56.807z" data-original="#E56353" class="" data-old_color="#425f73"/>
	<path style="fill:#425F73" d="M439.966,292.752l-13.84-13.84c-1.845-1.845-4.836-1.845-6.681,0c-1.845,1.845-1.845,4.836,0,6.681   l13.84,13.84c1.845,1.845,4.836,1.845,6.681,0C441.811,297.589,441.812,294.597,439.966,292.752z" data-original="#E56353" class="" data-old_color="#425f73"/>
	<path style="fill:#425F73" d="M463.568,221.923h-19.572c-2.609,0-4.724,2.116-4.724,4.724c0,2.609,2.115,4.724,4.724,4.724h19.572   c2.609,0,4.724-2.115,4.724-4.724C468.293,224.038,466.178,221.923,463.568,221.923z" data-original="#E56353" class="" data-old_color="#425f73"/>
	<path style="fill:#425F73" d="M430.173,155.15l-13.84,13.84c-1.845,1.845-1.845,4.836,0,6.681c1.845,1.845,4.836,1.845,6.681,0   l13.84-13.84c1.845-1.845,1.845-4.836,0-6.681C435.01,153.305,432.018,153.305,430.173,155.15z" data-original="#E56353" class="" data-old_color="#425f73"/>
</g></g> </svg>
