<svg xmlns="http://www.w3.org/2000/svg" xmlns:xlink="http://www.w3.org/1999/xlink" width="16" height="11" viewBox="0 0 16 11"><defs><path id="8xc4a" d="M38.55 209.62v-2.33a3.64 3.64 0 0 1-2.84-2.84h-7.42a3.64 3.64 0 0 1-2.84 2.84v2.33c1.43.3 2.55 1.4 2.84 2.83h7.42a3.64 3.64 0 0 1 2.84-2.83zm0 1.5c-.63.22-1.11.71-1.34 1.33h.97c.2 0 .37-.16.37-.36zm-13.1 0zm0 .97c0 .2.17.36.37.36h.97a2.19 2.19 0 0 0-1.34-1.33zm11.76-7.64c.23.63.71 1.11 1.34 1.34v-.97c0-.2-.17-.37-.37-.37zm-11.39 0c-.2 0-.37.17-.37.37v.96c.63-.22 1.11-.7 1.34-1.33zm-1.82.37c0-1 .81-1.82 1.82-1.82h12.36c1 0 1.82.82 1.82 1.82v7.27c0 1-.81 1.82-1.82 1.82H25.82c-1 0-1.82-.82-1.82-1.82zm8 6.54a2.9 2.9 0 1 1 0-5.81 2.9 2.9 0 0 1 0 5.81zm0-1.45a1.45 1.45 0 1 0 0-2.91 1.45 1.45 0 0 0 0 2.9z"/></defs><g><g transform="translate(-24 -203)"><use fill="#3497fd" xlink:href="#8xc4a"/></g></g></svg>