<?xml version="1.0" encoding="iso-8859-1"?>
<!-- Generator: Adobe Illustrator 19.0.0, SVG Export Plug-In . SVG Version: 6.00 Build 0)  -->
<svg version="1.1" id="Capa_1" xmlns="http://www.w3.org/2000/svg" xmlns:xlink="http://www.w3.org/1999/xlink" x="0px" y="0px"
	 viewBox="0 0 512 512" style="enable-background:new 0 0 512 512;" xml:space="preserve">
<g>
	<path style="fill:#D0D7DF;" d="M394.667,426.667v32c0,23.564-19.103,42.667-42.667,42.667H117.333
		c-23.564,0-42.667-19.103-42.667-42.667v-32H394.667z"/>
	<path style="fill:#D0D7DF;" d="M394.667,53.333v32h-320v-32c0-23.564,19.103-42.667,42.667-42.667H352
		C375.564,10.667,394.667,29.769,394.667,53.333z"/>
</g>
<path style="fill:#49AAEE;" d="M394.667,426.667h-320V85.333h320v53.333V426.667z"/>
<g>
	<path style="fill:#F6B445;" d="M437.333,170.667v170.667c0.03,5.66-2.241,11.088-6.293,15.04L426.667,352L384,309.333l-64-64
		l-3.307-5.76L437.333,170.667z"/>
	<path style="fill:#F6B445;" d="M259.307,239.573l-3.307,5.76l-64,64L149.333,352l-7.04,1.28c-2.389-3.524-3.653-7.689-3.627-11.947
		V170.667L259.307,239.573z"/>
</g>
<g>
	<path style="fill:#FED049;" d="M426.667,352l4.373,4.373c-3.952,4.052-9.38,6.323-15.04,6.293H160
		c-7.094,0.001-13.726-3.515-17.707-9.387l7.04-1.28L192,309.333l64-64l3.307-5.76L288,256l28.693-16.427l3.307,5.76l64,64
		L426.667,352z"/>
	<path style="fill:#FED049;" d="M416,149.333c11.768,0.035,21.298,9.566,21.333,21.333l-120.64,68.907L288,256l-28.693-16.427
		l-120.64-68.907c-0.244-11.538,8.911-21.089,20.449-21.333c0.295-0.006,0.589-0.006,0.884,0L416,149.333z"/>
</g>
<g>
	<path style="fill:#474C54;" d="M394.667,394.667c-5.891,0-10.667,4.776-10.667,10.667v53.333c0,17.673-14.327,32-32,32H117.333
		c-17.673,0-32-14.327-32-32V53.333c0-17.673,14.327-32,32-32H352c17.673,0,32,14.327,32,32v21.333H128
		c-5.891,0-10.667,4.776-10.667,10.667C117.333,91.224,122.109,96,128,96h256v10.667c0,5.891,4.776,10.667,10.667,10.667
		c5.891,0,10.667-4.776,10.667-10.667V53.333C405.298,23.893,381.441,0.035,352,0H117.333C87.893,0.035,64.035,23.893,64,53.333
		v405.333c0.035,29.441,23.893,53.298,53.333,53.333H352c29.441-0.035,53.298-23.893,53.333-53.333v-53.333
		C405.333,399.442,400.558,394.667,394.667,394.667z"/>
	<path style="fill:#474C54;" d="M117.333,426.667c0,5.891,4.776,10.667,10.667,10.667h213.333c5.891,0,10.667-4.776,10.667-10.667
		c0-5.891-4.776-10.667-10.667-10.667H128C122.109,416,117.333,420.776,117.333,426.667z"/>
	<path style="fill:#474C54;" d="M416,138.667H181.333c-5.891,0-10.667,4.776-10.667,10.667c0,5.891,4.776,10.667,10.667,10.667H416
		c3.803,0.008,7.314,2.04,9.216,5.333L288,243.712l-144-82.304c-5.102-2.946-11.625-1.198-14.571,3.904
		c-0.94,1.628-1.433,3.475-1.429,5.354v170.667c0,17.673,14.327,32,32,32h256c17.673,0,32-14.327,32-32V170.411
		C447.859,152.838,433.574,138.666,416,138.667z M426.667,341.333c0,5.891-4.776,10.667-10.667,10.667H160
		c-5.891,0-10.667-4.776-10.667-10.667V189.045l94.101,53.771l-58.976,58.976c-4.237,4.092-4.355,10.845-0.262,15.083
		c4.092,4.237,10.845,4.355,15.083,0.262c0.089-0.086,0.176-0.173,0.262-0.262l63.093-63.083l20.032,11.467
		c3.279,1.873,7.303,1.873,10.581,0l20.075-11.467l63.093,63.083c4.237,4.093,10.99,3.975,15.083-0.262
		c3.993-4.134,3.993-10.687,0-14.821l-58.976-58.976l94.144-53.771V341.333z"/>
</g>
<g>
</g>
<g>
</g>
<g>
</g>
<g>
</g>
<g>
</g>
<g>
</g>
<g>
</g>
<g>
</g>
<g>
</g>
<g>
</g>
<g>
</g>
<g>
</g>
<g>
</g>
<g>
</g>
<g>
</g>
</svg>
