<svg xmlns="http://www.w3.org/2000/svg" xmlns:xlink="http://www.w3.org/1999/xlink" width="192" height="192" viewBox="0 0 192 192"><defs><path id="u8l2c" d="M118.6 209.4a11.9 11.9 0 0 1-4.41 4.4c-1.28.71-1.28 2.56 0 3.41a11.9 11.9 0 0 1 4.4 4.4c.72 1.29 2.56 1.29 3.42 0a11.9 11.9 0 0 1 4.4-4.4c1.28-.7 1.28-2.55 0-3.4a11.9 11.9 0 0 1-4.4-4.41 2 2 0 0 0-3.42 0z"/><path id="u8l2d" d="M102.54 163.65a83.83 83.83 0 1 1 167.66 0 83.83 83.83 0 0 1-167.66 0z"/><path id="u8l2h" d="M141.76 216.93a11.7 11.7 0 0 1-11.66-11.65v-49.3c0-2.28 1-4.27 2.85-5.55l48.45-35.52a9.6 9.6 0 0 1 4.69-1.85 8.82 8.82 0 0 1 6.53 1.7l48.74 35.67a6.74 6.74 0 0 1 2.84 5.54v49.3a11.7 11.7 0 0 1-11.65 11.66z"/><path id="u8l2j" d="M108.93 164.36c0-43.16 34.67-78.15 77.44-78.15 42.77 0 77.44 34.99 77.44 78.15 0 43.16-34.67 78.15-77.44 78.15-42.77 0-77.44-35-77.44-78.15z"/><path id="u8l2l" d="M189.78 120.17a4.7 4.7 0 0 0-5.4 0l-47.74 34.95v48.45a6.97 6.97 0 0 0 6.96 6.97h87.1a6.97 6.97 0 0 0 6.97-6.97v-48.45z"/><path id="u8l2n" d="M189.78 120.17a4.7 4.7 0 0 0-5.4 0l-47.74 34.95 50.44 28.42 50.44-28.42z"/><path id="u8l2p" d="M184.38 123.01a4.7 4.7 0 0 1 5.4 0l45.47 33.4 2.13-1.29-47.6-34.95a4.7 4.7 0 0 0-5.4 0l-47.74 34.95 2.13 1.28z"/><path id="u8l2r" d="M165.77 184.25h7.1v-40.21c0-2.13-1.7-3.98-3.98-3.98h-3.26a4.19 4.19 0 0 1-4.27 4.26 4.19 4.19 0 0 1-4.26-4.26h-3.27a3.97 3.97 0 0 0-3.98 3.98v40.21h7.1a4.19 4.19 0 0 1 4.27-4.26c2.42 0 4.55 1.84 4.55 4.26z"/><path id="u8l2t" d="M154.4 152.99a4.19 4.19 0 0 1 4.26-4.26h5.69a4.19 4.19 0 0 1 4.26 4.26z"/><path id="u8l2u" d="M154.4 175.72v-4.26h14.21v4.26z"/><path id="u8l2w" d="M154.4 171.46V153h14.21v18.47z"/><path id="u8l2x" d="M169.04 140.2h-.29a33.01 33.01 0 0 0-5.68 18.47c0 2.85.42 5.55 1 8.1l-13.79-7.95v9.52l18.05 8.1a29.33 29.33 0 0 0 4.68 5.68v-38.08a4.04 4.04 0 0 0-3.97-3.84z"/><path id="u8l2y" d="M165.77 158.67a28.42 28.42 0 1 1 56.83 0 28.42 28.42 0 0 1-56.83 0z"/><path id="u8l2A" d="M171.45 158.67a22.73 22.73 0 1 1 45.47 0 22.73 22.73 0 0 1-45.47 0z"/><path id="u8l2a" d="M193.9 157.25c-1.13 0-2.13-1-2.27-2.27 0-1.28 1-2.27 2.27-2.27 1.28 0 2.28 1 2.28 2.27 0 1.28-1 2.27-2.28 2.27zm-7.24 2.56c-.72.85-1 1.7-1.14 2.84 0 1.14.42 2 1.14 2.84 1.27 1.43.28 3.84-1.71 3.84s-2.98-2.41-1.7-3.84a3.65 3.65 0 0 0 1.13-2.84c0-1.13-.42-1.99-1.13-2.84-1.28-1.42-.29-3.84 1.7-3.84s2.98 2.42 1.7 3.84zm16.62-8.24c-1.14 0-2.13-1-2.27-2.27 0-1.28 1-2.28 2.27-2.28 1.28 0 2.27 1 2.27 2.28 0 1.27-1 2.27-2.27 2.27zm1.7 8.24a4.22 4.22 0 0 0-1.13 2.84c0 1.14.42 2 1.13 2.84 1.28 1.43.29 3.84-1.7 3.84s-2.98-2.41-1.7-3.84a3.65 3.65 0 0 0 1.13-2.84c0-1.13-.42-1.99-1.14-2.84-1.27-1.42-.28-3.84 1.71-3.84s2.98 2.42 1.7 3.84zm-19.89-8.24c-1.28 0-2.27-1-2.27-2.27 0-1.28 1-2.28 2.27-2.28 1.28 0 2.28 1 2.28 2.28 0 1.27-1 2.27-2.28 2.27zm10.52 14.07a4.22 4.22 0 0 0-1.14 2.84c0 1.13.43 1.99 1.14 2.84 1.28 1.42.28 3.84-1.7 3.84-2 0-3-2.42-1.71-3.84a3.65 3.65 0 0 0 1.13-2.84c0-1.14-.42-2-1.13-2.84-1.28-1.42-.29-3.84 1.7-3.84 2 0 2.99 2.42 1.7 3.84z"/><path id="u8l2b" d="M182.82 175.16v-28.14h22.73v28.14z"/><path id="u8l2E" d="M180.55 177.43v-32.54h27.13v32.54z"/><path id="u8l2I" d="M253.3 128.55a15.5 15.5 0 0 1-5.26 5.26c-1.57 1-1.57 3.12 0 3.98a15.5 15.5 0 0 1 5.25 5.25c1 1.57 3.13 1.57 3.98 0a15.5 15.5 0 0 1 5.26-5.25c1.56-1 1.56-3.13 0-3.98a15.5 15.5 0 0 1-5.26-5.26 2.27 2.27 0 0 0-3.98 0z"/><path id="u8l2J" d="M194.75 176.44l-4.83-3.56a4.9 4.9 0 0 0-5.82 0l-4.83 3.56-11.23-6.4a28.3 28.3 0 0 0 26 17.05 28.28 28.28 0 0 0 28.28-26.28z"/><path id="u8l2K" d="M187.08 183.54l-50.44-28.42v48.45a6.97 6.97 0 0 0 6.96 6.97h87.1a6.97 6.97 0 0 0 6.97-6.97v-48.45z"/><path id="u8l2M" d="M189.92 175.72a4.9 4.9 0 0 0-5.82 0l-45.04 33.11a6.7 6.7 0 0 0 4.54 1.7h87.1c1.7 0 3.27-.7 4.55-1.7z"/><path id="u8l2O" d="M138.77 258.14c0-3.14 21.31-5.69 47.6-5.69 26.29 0 47.6 2.55 47.6 5.69 0 3.13-21.31 5.68-47.6 5.68-26.29 0-47.6-2.55-47.6-5.68z"/><path id="u8l2Q" d="M137.07 115.76a7.5 7.5 0 0 1 0 3.56c-.29.85.56 1.56 1.28 1.27a7.5 7.5 0 0 1 3.55 0c.85.29 1.56-.56 1.28-1.27a7.5 7.5 0 0 1 0-3.56c.28-.85-.57-1.56-1.28-1.28a7.5 7.5 0 0 1-3.55 0c-.72-.28-1.43.43-1.28 1.28z"/><path id="u8l2R" d="M281 162.37a10.62 10.62 0 0 1-3.55 3.55c-1 .57-1 2.13 0 2.7 1.42.85 2.7 2.13 3.55 3.55.57 1 2.13 1 2.7 0 .85-1.42 2.13-2.7 3.55-3.55 1-.57 1-2.13 0-2.7a10.62 10.62 0 0 1-3.55-3.55c-.7-1.14-2.13-1.14-2.7 0z"/><path id="u8l2S" d="M145.6 81.52a11.9 11.9 0 0 1-4.41 4.4c-1.28.72-1.28 2.56 0 3.41a11.9 11.9 0 0 1 4.4 4.41c.71 1.28 2.56 1.28 3.41 0a11.9 11.9 0 0 1 4.4-4.4c1.29-.72 1.29-2.56 0-3.42a11.9 11.9 0 0 1-4.4-4.4 2 2 0 0 0-3.4 0z"/><path id="u8l2T" d="M98.28 170.47a4.9 4.9 0 0 1-1.7 1.7c-.58.29-.58 1 0 1.28.7.43 1.27 1 1.7 1.7.28.57 1 .57 1.28 0a4.9 4.9 0 0 1 1.7-1.7c.57-.28.57-1 0-1.28a4.9 4.9 0 0 1-1.7-1.7c-.15-.57-1-.57-1.28 0z"/><path id="u8l2U" d="M162.64 97.15a11.9 11.9 0 0 1-4.4 4.4c-1.28.71-1.28 2.56 0 3.41a11.9 11.9 0 0 1 4.4 4.4c.71 1.29 2.56 1.29 3.41 0a11.9 11.9 0 0 1 4.4-4.4c1.29-.7 1.29-2.55 0-3.4a11.9 11.9 0 0 1-4.4-4.41 2 2 0 0 0-3.4 0z"/><path id="u8l2V" d="M113.34 182.26a10.62 10.62 0 0 1-3.55 3.55c-1 .57-1 2.13 0 2.7 1.42.86 2.7 2.13 3.55 3.55.57 1 2.13 1 2.7 0 .85-1.42 2.13-2.7 3.55-3.55 1-.57 1-2.13 0-2.7a10.62 10.62 0 0 1-3.55-3.55c-.71-1.14-2.13-1.14-2.7 0z"/><path id="u8l2W" d="M96.14 126a2.84 2.84 0 1 1 5.69 0 2.84 2.84 0 0 1-5.69 0z"/><path id="u8l2X" d="M272.33 202.72a2.84 2.84 0 1 1 5.69 0 2.84 2.84 0 0 1-5.69 0z"/><path id="u8l2Y" d="M187.08 74.84a2.84 2.84 0 1 1 5.69 0 2.84 2.84 0 0 1-5.69 0z"/><path id="u8l2Z" d="M214.08 104.68a5.68 5.68 0 1 1 11.37 0 5.68 5.68 0 0 1-11.37 0z"/><path id="u8l2aa" d="M143.6 206.27a2.7 2.7 0 0 1-2.7-2.7v-41.2l46.18 26 46.18-26v41.2a2.7 2.7 0 0 1-2.7 2.7z"/><path id="u8l2ac" d="M194.9 263.82c-26.3 0-47.6-2.55-47.6-5.68 0-3.14 73.89 5.68 47.6 5.68z"/><linearGradient id="u8l2e" x1="186.37" x2="186.37" y1="244.64" y2="80.43" gradientUnits="userSpaceOnUse"><stop offset="0" stop-color="#f4f4f4"/><stop offset=".91" stop-color="#f4f4f4"/></linearGradient><linearGradient id="u8l2f" x1="186.37" x2="186.37" y1="244.64" y2="80.43" gradientUnits="userSpaceOnUse"><stop offset="0" stop-color="#f4f4f4"/><stop offset=".91" stop-color="#f4f4f4"/></linearGradient><linearGradient id="u8l2g" x1="186.37" x2="186.37" y1="244.64" y2="80.43" gradientUnits="userSpaceOnUse"><stop offset="0" stop-color="#804471"/><stop offset="1" stop-color="#6994cd" stop-opacity=".1"/></linearGradient><linearGradient id="u8l2i" x1="187.08" x2="187.08" y1="67.78" y2="228.54" gradientUnits="userSpaceOnUse"><stop offset=".02" stop-opacity="0"/><stop offset="1" stop-color="#09151f"/></linearGradient><linearGradient id="u8l2k" x1="186.37" x2="186.37" y1="256.85" y2="86.93" gradientUnits="userSpaceOnUse"><stop offset="0" stop-color="#2c3e54" stop-opacity=".6"/><stop offset="1" stop-color="#6994cd" stop-opacity=".1"/></linearGradient><linearGradient id="u8l2m" x1="187.08" x2="187.08" y1="349.48" y2="111.62" gradientUnits="userSpaceOnUse"><stop offset="0" stop-color="#804471"/><stop offset="1" stop-color="#f9ab7d"/></linearGradient><linearGradient id="u8l2o" x1="187.08" x2="187.08" y1="183.18" y2="119.96" gradientUnits="userSpaceOnUse"><stop offset="0" stop-color="#42233b"/><stop offset="1" stop-color="#8b5782"/></linearGradient><linearGradient id="u8l2q" x1="136.64" x2="237.52" y1="137.82" y2="137.82" gradientUnits="userSpaceOnUse"><stop offset="0" stop-color="#a46d89" stop-opacity="0"/><stop offset=".49" stop-color="#a46d89"/><stop offset="1" stop-color="#a46d89" stop-opacity="0"/></linearGradient><linearGradient id="u8l2s" x1="150.14" x2="172.87" y1="162.23" y2="162.23" gradientUnits="userSpaceOnUse"><stop offset="0" stop-color="#5cc5c6"/><stop offset="1" stop-color="#5cc5c6"/></linearGradient><linearGradient id="u8l2v" x1="154.4" x2="168.61" y1="173.59" y2="173.59" gradientUnits="userSpaceOnUse"><stop offset="0" stop-color="#5cc5c6"/><stop offset="1" stop-color="#5cc5c6"/></linearGradient><linearGradient id="u8l2z" x1="194.19" x2="194.19" y1="131.5" y2="316.62" gradientUnits="userSpaceOnUse"><stop offset="0" stop-color="#6e9cd9"/><stop offset="1" stop-color="#5d6fb5"/></linearGradient><linearGradient id="u8l2B" x1="194.19" x2="194.19" y1="240.02" y2="118.53" gradientUnits="userSpaceOnUse"><stop offset="0" stop-color="#6994cd"/><stop offset="1" stop-color="#5d6fb5"/></linearGradient><linearGradient id="u8l2F" x1="194.19" x2="194.19" y1="132.92" y2="190.31" gradientUnits="userSpaceOnUse"><stop offset="0" stop-color="#5d6fb5" stop-opacity="0"/><stop offset=".99" stop-color="#2b3454" stop-opacity=".5"/></linearGradient><linearGradient id="u8l2L" x1="187.08" x2="187.08" y1="294.91" y2="150.47" gradientUnits="userSpaceOnUse"><stop offset="0" stop-color="#804471"/><stop offset="1" stop-color="#f9ab7d"/></linearGradient><linearGradient id="u8l2N" x1="187.08" x2="187.08" y1="318.17" y2="176.16" gradientUnits="userSpaceOnUse"><stop offset="0" stop-color="#804471"/><stop offset="1" stop-color="#f9ab7d"/></linearGradient><linearGradient id="u8l2P" x1="186.37" x2="186.37" y1="264.18" y2="236.78" gradientUnits="userSpaceOnUse"><stop offset="0" stop-color="#2b1727" stop-opacity=".2"/><stop offset="1" stop-color="#6994cd" stop-opacity="0"/></linearGradient><linearGradient id="u8l2ab" x1="187.08" x2="187.08" y1="273.06" y2="158.73" gradientUnits="userSpaceOnUse"><stop offset="0" stop-color="#fff" stop-opacity=".3"/><stop offset="1" stop-color="#fff" stop-opacity="0"/></linearGradient><linearGradient id="u8l2ad" x1="173.92" x2="173.92" y1="264.02" y2="248.69" gradientUnits="userSpaceOnUse"><stop offset="0" stop-color="#2b1727" stop-opacity=".2"/><stop offset="1" stop-color="#6994cd" stop-opacity="0"/></linearGradient><clipPath id="u8l2C"><use xlink:href="#u8l2a"/></clipPath><clipPath id="u8l2D"><use xlink:href="#u8l2b"/></clipPath><clipPath id="u8l2G"><use xlink:href="#u8l2a"/></clipPath><clipPath id="u8l2H"><use xlink:href="#u8l2b"/></clipPath></defs><g><g transform="translate(-96 -72)"><g opacity=".35"><use fill="#ffbd9c" xlink:href="#u8l2c"/></g><g><use fill="url(#u8l2e)" xlink:href="#u8l2d"/></g><g><use fill="url(#u8l2f)" xlink:href="#u8l2d"/></g><g><use fill="url(#u8l2g)" xlink:href="#u8l2d"/></g><g opacity=".25"><use fill="url(#u8l2i)" xlink:href="#u8l2h"/></g><g opacity=".5"><use fill="url(#u8l2k)" xlink:href="#u8l2j"/></g><g><use fill="url(#u8l2m)" xlink:href="#u8l2l"/></g><g><use fill="url(#u8l2o)" xlink:href="#u8l2n"/></g><g><use fill="url(#u8l2q)" xlink:href="#u8l2p"/></g><g><g><g><use fill="url(#u8l2s)" xlink:href="#u8l2r"/></g><g><use fill="#63d3d0" xlink:href="#u8l2t"/></g><g><use fill="url(#u8l2v)" xlink:href="#u8l2u"/></g><g><use fill="#6de2dc" xlink:href="#u8l2w"/></g></g></g><g opacity=".08"><use fill="#2b0919" xlink:href="#u8l2x"/></g><g><g><use fill="url(#u8l2z)" xlink:href="#u8l2y"/></g><g><use fill="url(#u8l2B)" xlink:href="#u8l2A"/></g><g><g><use fill="#fff" xlink:href="#u8l2a"/></g><g><g><use xlink:href="#u8l2a"/></g><g clip-path="url(#u8l2C)"><use fill="#fff" xlink:href="#u8l2b"/></g><g clip-path="url(#u8l2C)"><g><use xlink:href="#u8l2b"/></g><g clip-path="url(#u8l2D)"><use fill="#fff" xlink:href="#u8l2E"/></g></g></g></g><g><use fill="url(#u8l2F)" xlink:href="#u8l2y"/></g><g opacity=".56"><g opacity=".31"><use fill="#fff" xlink:href="#u8l2a"/></g><g opacity=".56"><g opacity=".31"><use xlink:href="#u8l2a"/></g><g clip-path="url(#u8l2G)" opacity=".56"><use fill="#fff" xlink:href="#u8l2b"/></g><g clip-path="url(#u8l2G)" opacity=".56"><g opacity=".56"><use xlink:href="#u8l2b"/></g><g clip-path="url(#u8l2H)" opacity=".56"><use fill="#fff" xlink:href="#u8l2E"/></g></g></g></g></g><g opacity=".63"><use fill="#fff" xlink:href="#u8l2I"/></g><g opacity=".08"><use fill="#351d30" xlink:href="#u8l2J"/></g><g><use fill="url(#u8l2L)" xlink:href="#u8l2K"/></g><g><use fill="url(#u8l2N)" xlink:href="#u8l2M"/></g><g opacity=".24"><use fill="url(#u8l2P)" xlink:href="#u8l2O"/></g><g opacity=".68"><use fill="#fff" xlink:href="#u8l2Q"/></g><g><use fill="#ffbd9c" xlink:href="#u8l2R"/></g><g><use fill="#ffbd9c" xlink:href="#u8l2S"/></g><g><use fill="#ffbd9c" xlink:href="#u8l2T"/></g><g opacity=".18"><use fill="#ffbd9c" xlink:href="#u8l2U"/></g><g opacity=".51"><use fill="#fff" xlink:href="#u8l2V"/></g><g opacity=".49"><use fill="#fff" xlink:href="#u8l2W"/></g><g opacity=".39"><use fill="#fff" xlink:href="#u8l2X"/></g><g opacity=".19"><use fill="#fff" xlink:href="#u8l2Y"/></g><g opacity=".18"><use fill="#fff" xlink:href="#u8l2Z"/></g><g opacity=".37"><use fill="url(#u8l2ab)" xlink:href="#u8l2aa"/></g><g opacity=".05"><use fill="url(#u8l2ad)" xlink:href="#u8l2ac"/></g></g></g></svg>