<svg xmlns="http://www.w3.org/2000/svg" xmlns:xlink="http://www.w3.org/1999/xlink" width="14" height="13" viewBox="0 0 14 13"><defs><path id="sjxia" d="M339.78 313.38l.78-.78a.2.2 0 0 1 .33.14v3.53c0 .64-.52 1.17-1.16 1.17h-8.55c-.65 0-1.17-.53-1.17-1.17v-8.55c0-.64.52-1.16 1.17-1.16h6.64c.17 0 .26.2.14.33l-.78.78a.2.2 0 0 1-.14.05h-5.86v8.55h8.55v-2.76c0-.05.02-.1.05-.13zm3.8-4.9l-6.37 6.37-2.2.25a1 1 0 0 1-1.1-1.11l.24-2.2 6.38-6.37a1.42 1.42 0 0 1 2 0l1.05 1.05c.56.55.56 1.45 0 2zm-2.4.75l-1.4-1.41-4.52 4.51-.17 1.59 1.58-.18zm1.58-1.94l-1.05-1.05a.25.25 0 0 0-.36 0l-.75.75 1.41 1.41.75-.75c.1-.1.1-.26 0-.36z"/></defs><g><g transform="translate(-330 -305)"><use fill="#4e4e4e" xlink:href="#sjxia"/></g></g></svg>