<?xml version="1.0" encoding="UTF-8"?>
<svg width="16px" height="20px" viewBox="0 0 16 20" version="1.1" xmlns="http://www.w3.org/2000/svg" xmlns:xlink="http://www.w3.org/1999/xlink">
    <!-- Generator: Sketch 47.1 (45422) - http://www.bohemiancoding.com/sketch -->
    <title>advanced</title>
    <desc>Created with Sketch.</desc>
    <defs></defs>
    <g id="V4-numbers" stroke="none" stroke-width="1" fill="none" fill-rule="evenodd" stroke-linecap="round" stroke-linejoin="round">
        <g id="Icons" transform="translate(-852.000000, -560.000000)" stroke-width="1.7">
            <g id="advanced" transform="translate(839.000000, 550.000000)">
                <g id="Advanced" transform="translate(13.000000, 11.000000)">
                    <path d="M1,9.5 L1,17.5622577" id="Line-2" stroke="#00A9D4" opacity="0.900000036"></path>
                    <g id="flag" transform="translate(1.000000, 0.000000)" stroke="#5F6C82" fill-rule="nonzero">
                        <path d="M1.55555556,9.65722727 C1.65467439,9.63122052 1.75973229,9.60556171 1.8703202,9.58067943 C3.46366852,9.22217606 5.16100779,9.22217606 6.72690398,9.80938716 C8.61779792,10.5184724 10.6077015,10.5184724 12.4711432,10.099198 C12.9401592,9.99366939 13.2907279,9.88610852 13.4953182,9.80938716 L14,9.62013147 L14,0.18101964 L12.9491262,0.57509731 C12.9203657,0.585882509 12.8524872,0.609123505 12.7492267,0.640805727 C12.5696026,0.695917644 12.3618255,0.751572237 12.1296798,0.803805008 C10.5363315,1.16230839 8.83899221,1.16230839 7.27309602,0.57509731 C5.38220208,-0.133987912 3.39229854,-0.133987912 1.52885677,0.285286491 C1.05984083,0.390815077 0.709272079,0.498375945 0.504681769,0.57509731 L0,0.764352973 L0,5.94785353 L0,10.2400124 L1.55555556,9.65722727 Z" id="Shape"></path>
                    </g>
                </g>
            </g>
        </g>
    </g>
</svg>