<?xml version="1.0" encoding="UTF-8"?>
<svg width="15px" height="14px" viewBox="0 0 15 14" version="1.1" xmlns="http://www.w3.org/2000/svg" xmlns:xlink="http://www.w3.org/1999/xlink">
    <!-- Generator: Sketch 47.1 (45422) - http://www.bohemiancoding.com/sketch -->
    <title>ambassador</title>
    <desc>Created with Sketch.</desc>
    <defs></defs>
    <g id="V4-numbers" stroke="none" stroke-width="1" fill="none" fill-rule="evenodd">
        <g id="Icons" transform="translate(-912.000000, -332.000000)">
            <g id="ambassador" transform="translate(900.000000, 320.000000)">
                <path d="M17.7536718,21 L18.9800882,24.4850608 L18.9800882,24.4850608 C19.0545506,24.696658 18.9137019,24.9196514 18.6654937,24.9831305 C18.621754,24.9943169 18.576333,25 18.5306675,25 L16.1058386,25 L16.1058386,25 C15.6914256,25 15.326078,24.7682655 15.2069973,24.4298783 L14,21 L14,21" id="Rectangle-7" stroke="#00B0DD" stroke-width="2"></path>
                <path d="M20.4634836,15.3997365 L13.875,15.3997365 C13.3917508,15.3997365 13,15.7914874 13,16.2747365 L13,16.2747365 L13,20.7253645 C13,21.2086137 13.3917508,21.6003645 13.875,21.6003645 L20.4634836,21.6003645 L25.3731869,23.9569194 C25.4322682,23.9852772 25.4969655,23.9999998 25.5625,23.9999998 C25.8041246,23.9999998 26,23.8041244 26,23.5624998 L26,23.5624998 L26,13.4376013 C26,13.3720668 25.9852774,13.3073695 25.9569196,13.2482882 C25.8523648,13.0304562 25.5910188,12.938627 25.3731869,13.0431817 L25.3731869,13.0431817 L20.4634836,15.3997365 Z" stroke="#5F6C82" stroke-width="1.7" stroke-linecap="round" stroke-linejoin="round"></path>
            </g>
        </g>
    </g>
</svg>