<?xml version="1.0" encoding="UTF-8"?>
<svg width="16px" height="16px" viewBox="0 0 16 16" version="1.1" xmlns="http://www.w3.org/2000/svg" xmlns:xlink="http://www.w3.org/1999/xlink">
    <!-- Generator: Sketch 47.1 (45422) - http://www.bohemiancoding.com/sketch -->
    <title>close</title>
    <desc>Created with Sketch.</desc>
    <defs></defs>
    <g id="V4-numbers" stroke="none" stroke-width="1" fill="none" fill-rule="evenodd">
        <g id="Icons" transform="translate(-851.000000, -100.000000)" fill-rule="nonzero" fill="#00B0DD">
            <g id="close" transform="translate(839.000000, 88.000000)">
                <path d="M21.4143369,19.9954237 L26.7973804,14.6123802 C27.1879047,14.2218559 27.1879047,13.5886909 26.7973804,13.1981667 C26.4068561,12.8076424 25.7736911,12.8076424 25.3831668,13.1981667 L20.0001234,18.5812101 L14.6170799,13.1981667 C14.2265556,12.8076424 13.5933907,12.8076424 13.2028664,13.1981667 C12.8123421,13.5886909 12.8123421,14.2218559 13.2028664,14.6123802 L18.5859098,19.9954237 L13.2028664,25.3784671 C12.8123421,25.7689914 12.8123421,26.4021564 13.2028664,26.7926807 C13.5933907,27.183205 14.2265556,27.183205 14.6170799,26.7926807 L20.0001234,21.4096372 L25.3831668,26.7926807 C25.7736911,27.183205 26.4068561,27.183205 26.7973804,26.7926807 C27.1879047,26.4021564 27.1879047,25.7689914 26.7973804,25.3784671 L21.4143369,19.9954237 Z" id="Combined-Shape"></path>
            </g>
        </g>
    </g>
</svg>