<?xml version="1.0" encoding="UTF-8"?>
<svg width="20px" height="16px" viewBox="0 0 20 16" version="1.1" xmlns="http://www.w3.org/2000/svg" xmlns:xlink="http://www.w3.org/1999/xlink">
    <!-- Generator: Sketch 47.1 (45422) - http://www.bohemiancoding.com/sketch -->
    <title>hidden</title>
    <desc>Created with Sketch.</desc>
    <defs></defs>
    <g id="V4" stroke="none" stroke-width="1" fill="none" fill-rule="evenodd">
        <g id="Requests" transform="translate(-26.000000, -139.000000)">
            <g id="hidden" transform="translate(27.000000, 140.000000)">
                <path d="M4.20381699,2.32984568 C5.60538169,1.48051943 7.20388224,1 9,1 C11.6794016,1 13.919028,2.06934284 15.721141,3.83716742 C16.3464294,4.45055864 16.8739933,5.10640956 17.3083168,5.76341755 C17.5720738,6.16240682 17.7488281,6.4787842 17.8419144,6.67195086 L18,7 L17.8419144,7.32804914 C17.7488281,7.5212158 17.5720738,7.83759318 17.3083168,8.23658245 C16.8739933,8.89359044 16.3464294,9.54944136 15.721141,10.1628326 C15.0243202,10.8463951 14.2620856,11.4255257 13.4343064,11.8787842 M10.6551376,12.8575393 C10.1234337,12.9513121 9.57172846,13 9,13 C6.32059841,13 4.08097204,11.9306572 2.27885899,10.1628326 C1.65357054,9.54944136 1.12600669,8.89359044 0.691683184,8.23658245 C0.427926229,7.83759317 0.251171926,7.5212158 0.158085645,7.32804914 L0,7 L0.158085645,6.67195086 C0.251171926,6.4787842 0.427926229,6.16240682 0.691683184,5.76341755 C1.04924931,5.22252166 1.47001149,4.68241 1.95647189,4.16612917" id="Shape" stroke="#5F6C82" stroke-width="1.7" stroke-linecap="round" fill-rule="nonzero"></path>
                <path d="M9,10 C7.34314575,10 6,8.65685425 6,7 C6,5.34314575 7.34314575,4 9,4 C10.6568543,4 12,5.34314575 12,7 C12,8.65685425 10.6568543,10 9,10 Z" id="Path" fill="#00B0DD"></path>
                <path d="M1.87792969,0 L15.5517578,14.0585937" id="Line" stroke="#5F6C82" stroke-width="1.7" stroke-linecap="round"></path>
            </g>
        </g>
    </g>
</svg>