<?xml version="1.0" encoding="UTF-8"?>
<svg width="14px" height="17px" viewBox="0 0 14 17" version="1.1" xmlns="http://www.w3.org/2000/svg" xmlns:xlink="http://www.w3.org/1999/xlink">
    <!-- Generator: Sketch 47.1 (45422) - http://www.bohemiancoding.com/sketch -->
    <title>merit</title>
    <desc>Created with Sketch.</desc>
    <defs></defs>
    <g id="V4-numbers" stroke="none" stroke-width="1" fill="none" fill-rule="evenodd">
        <g id="Icons" transform="translate(-791.000000, -449.000000)" fill="#FFFFFF">
            <g id="merit" transform="translate(778.000000, 436.000000)">
                <path d="M20.0000293,21.895702 C18.7675931,21.895702 18.1380464,23.3477023 18.9628461,24.2310859 C19.4166301,24.7170418 19.6416868,25.2856585 19.6416868,25.9465999 C19.6416868,26.6093533 19.4178538,27.1772797 18.9628461,27.6645298 C18.137959,28.5481723 18.7676805,30 20.0000293,30 C21.2321159,30 21.8620122,28.548086 21.0370377,27.6645298 C20.5832537,27.178574 20.3581971,26.6100435 20.3581971,25.9490158 C20.3581971,25.2863487 20.5820301,24.7182497 21.0370377,24.2310859 C21.8620122,23.347616 21.2321159,21.895702 20.0000293,21.895702 Z M15.8201818,14.3921186 C15.8201818,13.6234075 15.1888871,13 14.4100602,13 C13.6312332,13 13.0000259,13.6234075 13.0000259,14.3921186 C13.0000259,15.1610023 13.6312332,15.7842373 14.4100602,15.7842373 C15.1888871,15.7842373 15.8201818,15.1610023 15.8201818,14.3921186 Z M25.5895615,18.3147973 C24.3573001,18.3147973 23.7275786,19.7667976 24.5526405,20.6501812 C25.0063371,21.1361371 25.2313937,21.7046675 25.2313937,22.3656952 C25.2313937,23.0284486 25.0075607,23.596375 24.5526405,24.0836252 C23.7275786,24.9671813 24.3573875,26.419009 25.5895615,26.419009 C26.8219103,26.419009 27.4518066,24.967095 26.6267447,24.0836252 C26.1727858,23.5976693 25.947904,23.0291389 25.947904,22.3681112 C25.947904,21.7054441 26.171737,21.1373451 26.6267447,20.6501812 C27.4518066,19.7667113 26.8219103,18.3147973 25.5895615,18.3147973 Z M26.9995957,14.3921186 C26.9995957,13.6234075 26.3682136,13 25.5893867,13 C24.8107345,13 24.179265,13.6234075 24.179265,14.3921186 C24.179265,15.1610023 24.8107345,15.7842373 25.5893867,15.7842373 C26.3682136,15.7842373 26.9995957,15.1610023 26.9995957,14.3921186 Z M14.4103224,18.3147973 C13.1779736,18.3147973 12.5483395,19.7667976 13.3731392,20.6501812 C13.827098,21.1361371 14.0519798,21.7046675 14.0519798,22.3656952 C14.0519798,23.0284486 13.8282342,23.596375 13.3732266,24.0836252 C12.5482521,24.9671813 13.178061,26.419009 14.4103224,26.419009 C15.6425838,26.419009 16.2723053,24.967095 15.4472434,24.0836252 C14.9935467,23.5976693 14.7684901,23.0291389 14.7684901,22.3681112 C14.7684901,21.7054441 14.9923231,21.1373451 15.4472434,20.6501812 C16.2723053,19.7667113 15.6425838,18.3147973 14.4103224,18.3147973 Z M21.4098888,17.9730233 C21.4098888,17.2042259 20.7785941,16.5809047 19.9997671,16.5809047 C19.2209401,16.5809047 18.5897328,17.2042259 18.5897328,17.9730233 C18.5897328,18.741907 19.2209401,19.3652282 19.9997671,19.3652282 C20.7785941,19.3652282 21.4098888,18.741907 21.4098888,17.9730233 Z"></path>
            </g>
        </g>
    </g>
</svg>