<?xml version="1.0" encoding="UTF-8"?>
<svg width="18px" height="18px" viewBox="0 0 18 18" version="1.1" xmlns="http://www.w3.org/2000/svg" xmlns:xlink="http://www.w3.org/1999/xlink">
    <!-- Generator: Sketch 47.1 (45422) - http://www.bohemiancoding.com/sketch -->
    <title>mining</title>
    <desc>Created with Sketch.</desc>
    <defs></defs>
    <g id="V4-numbers" stroke="none" stroke-width="1" fill="none" fill-rule="evenodd">
        <g id="Icons" transform="translate(-790.000000, -389.000000)">
            <g id="mining" transform="translate(778.000000, 378.000000)">
                <path d="M22.135144,16.5953871 C20.1747449,18.5557861 17.2341464,21.4963847 13.3133483,25.4171828 C12.8955506,25.8349805 12.8955506,26.5123644 13.3133483,26.9301621 L14.0698379,27.6866517 C14.4876356,28.1044494 15.1650195,28.1044494 15.5828172,27.6866517 C19.4670268,23.8024422 22.380184,20.889285 24.3222888,18.9471802 M27.1029059,16.1665631 C27.2281078,16.0413612 27.4226897,15.8467792 27.6866517,15.5828172 L27.6866517,15.5828172 C28.1044494,15.1650195 28.1044494,14.4876356 27.6866517,14.0698379 L26.9301621,13.3133483 C26.5123644,12.8955506 25.8349805,12.8955506 25.4171828,13.3133483 C25.1733601,13.5571709 24.9934523,13.7370788 24.8774592,13.8530719" stroke="#5F6C82" stroke-width="1.7" stroke-linecap="round" stroke-linejoin="round"></path>
                <path d="M22.3430907,12.4320854 C22.0786388,12.1676335 21.2011769,11.9753332 20.3832247,12.0025708 L18.9021913,12.0518888 C18.0842391,12.0791263 17.7637387,12.4437876 18.1863335,12.8663824 L28.1336176,22.8136665 C28.5562124,23.2362613 28.9208737,22.9157609 28.9481112,22.0978087 L28.9974292,20.6167753 C29.0246668,19.7988231 28.8323665,18.9213612 28.5679146,18.6569093 L22.3430907,12.4320854 Z" id="mining-copy" stroke="#00B0DD" stroke-width="2"></path>
            </g>
        </g>
    </g>
</svg>