<?xml version="1.0" encoding="iso-8859-1"?>
<!-- Generator: Adobe Illustrator 19.0.0, SVG Export Plug-In . SVG Version: 6.00 Build 0)  -->
<svg version="1.1" id="Layer_1" xmlns="http://www.w3.org/2000/svg" xmlns:xlink="http://www.w3.org/1999/xlink" x="0px" y="0px"
	 viewBox="0 0 512 512" style="enable-background:new 0 0 512 512;" xml:space="preserve">
<g>
	<g>
		<g>
			<rect y="128" width="128" height="42.667"/>
			<rect x="21.333" y="213.333" width="106.667" height="42.667"/>
			<rect x="42.667" y="298.667" width="85.333" height="42.667"/>
			<path d="M490.667,128H192c-11.797,0-21.333,9.557-21.333,21.333v213.333c0,11.776,9.536,21.333,21.333,21.333h298.667
				c11.797,0,21.333-9.557,21.333-21.333V149.333C512,137.557,502.464,128,490.667,128z M213.333,341.333v-55.168l55.168,55.168
				H213.333z M469.333,341.333H328.832L213.333,225.835v-55.168h140.501l115.499,115.499V341.333z M469.333,225.835l-55.168-55.168
				h55.168V225.835z"/>
			<circle cx="341.333" cy="256" r="42.667"/>
		</g>
	</g>
</g>
<g>
</g>
<g>
</g>
<g>
</g>
<g>
</g>
<g>
</g>
<g>
</g>
<g>
</g>
<g>
</g>
<g>
</g>
<g>
</g>
<g>
</g>
<g>
</g>
<g>
</g>
<g>
</g>
<g>
</g>
</svg>
