<?xml version="1.0" encoding="UTF-8"?>
<svg width="16px" height="16px" viewBox="0 0 16 16" version="1.1" xmlns="http://www.w3.org/2000/svg" xmlns:xlink="http://www.w3.org/1999/xlink">
    <!-- Generator: Sketch 47.1 (45422) - http://www.bohemiancoding.com/sketch -->
    <title>plus</title>
    <desc>Created with Sketch.</desc>
    <defs></defs>
    <g id="V4-numbers" stroke="none" stroke-width="1" fill="none" fill-rule="evenodd">
        <g id="Icons" transform="translate(-790.000000, -733.000000)" fill="#5F6C82">
            <g id="plus" transform="translate(778.000000, 721.000000)">
                <path d="M21,19 L21,13 C21,12.4477153 20.5522847,12 20,12 C19.4477153,12 19,12.4477153 19,13 L19,13 L19,19 L13,19 C12.4477153,19 12,19.4477153 12,20 C12,20.5522847 12.4477153,21 13,21 L19,21 L19,27 C19,27.5522847 19.4477153,28 20,28 C20.5522847,28 21,27.5522847 21,27 L21,21 L27,21 C27.5522847,21 28,20.5522847 28,20 C28,19.4477153 27.5522847,19 27,19 L21,19 Z"></path>
            </g>
        </g>
    </g>
</svg>