<?xml version="1.0" encoding="UTF-8"?>
<svg width="24px" height="18px" viewBox="0 0 24 18" version="1.1" xmlns="http://www.w3.org/2000/svg" xmlns:xlink="http://www.w3.org/1999/xlink">
    <!-- Generator: Sketch 47.1 (45422) - http://www.bohemiancoding.com/sketch -->
    <title>receive</title>
    <desc>Created with Sketch.</desc>
    <defs></defs>
    <g id="V4-numbers" stroke="none" stroke-width="1" fill="none" fill-rule="evenodd">
        <g id="Icons" transform="translate(-1012.000000, -389.000000)" fill="#FFFFFF">
            <g id="receive" transform="translate(1004.000000, 378.000000)">
                <path d="M17.7036109,13.6861705 L17.7036109,11 L21.8938065,11 L21.8938065,13.6861705 L25.2701272,13.6861705 L19.8669802,19.6459225 L14.4638333,13.6861705 L17.7036109,13.6861705 Z M11.1133278,15.5542169 L12.0734864,23.6202656 C12.2066977,24.7100401 13.1469007,25.5301205 14.2630905,25.5301205 L25.4840908,25.5301205 C26.6002806,25.5301205 27.5404836,24.7100401 27.6736949,23.6202656 L28.6338535,15.5542169 L31.6842105,15.5542169 L30.2740872,27.0901451 C30.1408759,28.1799196 29.2006729,29 28.0844831,29 L11.5997274,29 C10.4835377,29 9.54333465,28.1799196 9.41012331,27.0901451 L8,15.5542169 L11.1133278,15.5542169 Z" id="Combined-Shape"></path>
            </g>
        </g>
    </g>
</svg>
