<?xml version="1.0" encoding="UTF-8"?>
<svg width="16px" height="14px" viewBox="0 0 16 14" version="1.1" xmlns="http://www.w3.org/2000/svg" xmlns:xlink="http://www.w3.org/1999/xlink">
    <!-- Generator: Sketch 47.1 (45422) - http://www.bohemiancoding.com/sketch -->
    <title>refresh</title>
    <desc>Created with Sketch.</desc>
    <defs></defs>
    <g id="V4-numbers" stroke="none" stroke-width="1" fill="none" fill-rule="evenodd" stroke-linecap="round" stroke-linejoin="round">
        <g id="Icons" transform="translate(-851.000000, -217.000000)" stroke="#5F6C82">
            <g id="refresh" transform="translate(839.000000, 204.000000)">
                <g id="recovery" transform="translate(19.500000, 20.500000) scale(-1, 1) translate(-19.500000, -20.500000) translate(11.000000, 12.000000)">
                    <polyline id="Path" stroke-width="1.7" transform="translate(3.000000, 5.100505) rotate(-630.000000) translate(-3.000000, -5.100505) " points="1 7.07580885 5 7.10050506 4.96925929 3.10050506"></polyline>
                    <path d="M8,14 C11.3137085,14 14,11.3137085 14,8 C14,4.6862915 11.3137085,2 8,2 C5.30026889,2 3.01699337,3.78305836 2.26356649,6.23578202" id="Oval-19" stroke-width="2"></path>
                    <path d="M8,14.1320126 C11.3137085,14.1320126 14,11.4457211 14,8.13201258 C14,4.81830408 11.3137085,2.13201258 8,2.13201258 C5.30026889,2.13201258 3.01699337,3.91507093 2.26356649,6.3677946" id="Oval-19-Copy" stroke-width="2" transform="translate(8.131783, 8.132013) rotate(-300.000000) translate(-8.131783, -8.132013) "></path>
                </g>
            </g>
        </g>
    </g>
</svg>