<?xml version="1.0" encoding="UTF-8"?>
<svg width="18px" height="18px" viewBox="0 0 18 18" version="1.1" xmlns="http://www.w3.org/2000/svg" xmlns:xlink="http://www.w3.org/1999/xlink">
    <!-- Generator: Sketch 47.1 (45422) - http://www.bohemiancoding.com/sketch -->
    <title>request amount</title>
    <desc>Created with Sketch.</desc>
    <defs></defs>
    <g id="V4-numbers" stroke="none" stroke-width="1" fill="none" fill-rule="evenodd">
        <g id="Icons" transform="translate(-789.000000, -618.000000)">
            <g id="request-amount" transform="translate(778.000000, 607.000000)">
                <g id="Request" transform="translate(12.000000, 12.000000)" stroke="#999999" stroke-width="1.7">
                    <rect id="Combined-Shape" x="0" y="0" width="16" height="16" rx="1.2"></rect>
                </g>
                <path d="M19,16 L19,24 C19,24.5522847 19.4477153,25 20,25 C20.5522847,25 21,24.5522847 21,24 L21,16 C21,15.4477153 20.5522847,15 20,15 C19.4477153,15 19,15.4477153 19,16 Z" id="Line" fill="#999999"></path>
                <path d="M16.0416667,21 L23.9583333,21 C24.5336299,21 25,20.5522847 25,20 C25,19.4477153 24.5336299,19 23.9583333,19 L16.0416667,19 C15.4663701,19 15,19.4477153 15,20 C15,20.5522847 15.4663701,21 16.0416667,21 Z" id="Line" fill="#5C6D80"></path>
            </g>
        </g>
    </g>
</svg>