<?xml version="1.0" encoding="UTF-8"?>
<svg width="20px" height="20px" viewBox="0 0 20 20" version="1.1" xmlns="http://www.w3.org/2000/svg" xmlns:xlink="http://www.w3.org/1999/xlink">
    <!-- Generator: Sketch 47.1 (45422) - http://www.bohemiancoding.com/sketch -->
    <title>send</title>
    <desc>Created with Sketch.</desc>
    <defs></defs>
    <g id="V4-numbers" stroke="none" stroke-width="1" fill="none" fill-rule="evenodd">
        <g id="Icons" transform="translate(-1013.000000, -446.000000)" fill="#FFFFFF">
            <g id="send" transform="translate(1004.000000, 436.000000)">
                <path d="M25.3100577,13.8601073 L14.1263644,23.5302654 L10.0649546,21.9514474 C9.87701584,21.8783888 9.71963063,21.7433907 9.61881133,21.5687655 C9.37422628,21.145129 9.51937611,20.6034285 9.94301255,20.3588434 L27.6141778,10.5791101 C27.7343668,10.5097194 27.8751568,10.4848797 28.0118354,10.508951 C28.3330075,10.5655145 28.5475151,10.8717297 28.4909516,11.1929019 L26.4952487,27.2027371 C26.4851816,27.2598986 26.4695204,27.3159321 26.4484907,27.3700296 C26.2712524,27.825964 25.7579644,28.0518919 25.3020299,27.8746536 L20.6048305,26.0486811 L17.2835435,29.644109 C17.1729012,29.7638838 16.9861111,29.7712872 16.8663363,29.6606448 C16.8058354,29.6047569 16.7714303,29.5261372 16.7714303,29.4437733 L16.7714303,24.593081 L25.3100577,13.8601073 Z" id="Combined-Shape"></path>
            </g>
        </g>
    </g>
</svg>