<?xml version="1.0" encoding="UTF-8"?>
<svg width="21px" height="18px" viewBox="0 0 21 18" version="1.1" xmlns="http://www.w3.org/2000/svg" xmlns:xlink="http://www.w3.org/1999/xlink">
    <!-- Generator: Sketch 47.1 (45422) - http://www.bohemiancoding.com/sketch -->
    <title>settings</title>
    <desc>Created with Sketch.</desc>
    <defs></defs>
    <g id="V4-numbers" stroke="none" stroke-width="1" fill="none" fill-rule="evenodd">
        <g id="Icons" transform="translate(-1014.000000, -99.000000)" fill="#FFFFFF">
            <g id="settings" transform="translate(1004.000000, 88.000000)">
                <g transform="translate(10.000000, 11.000000)" id="Combined-Shape">
                    <path d="M0.915078795,9.44136943 C0.774342968,9.19760782 0.774080432,8.8028469 0.915078795,8.55863057 L5.40542928,0.781115389 C5.54616511,0.537353786 5.88790683,0.339745962 6.16990355,0.339745962 L15.1506045,0.339745962 C15.4320762,0.339745962 15.7740804,0.53689906 15.9150788,0.781115389 L20.4054293,8.55863057 C20.5461651,8.80239218 20.5464276,9.1971531 20.4054293,9.44136943 L15.9150788,17.2188846 C15.774343,17.4626462 15.4326012,17.660254 15.1506045,17.660254 L6.16990355,17.660254 C5.8884319,17.660254 5.54642764,17.4631009 5.40542928,17.2188846 L0.915078795,9.44136943 Z M10.6600037,12.5 C12.5930003,12.5 14.1600037,10.9329966 14.1600037,9 C14.1600037,7.06700338 12.5930003,5.5 10.6600037,5.5 C8.72700704,5.5 7.16000366,7.06700338 7.16000366,9 C7.16000366,10.9329966 8.72700704,12.5 10.6600037,12.5 Z"></path>
                </g>
            </g>
        </g>
    </g>
</svg>