<?xml version="1.0" encoding="UTF-8"?>
<svg width="20px" height="14px" viewBox="0 0 20 14" version="1.1" xmlns="http://www.w3.org/2000/svg" xmlns:xlink="http://www.w3.org/1999/xlink">
    <!-- Generator: Sketch 47.1 (45422) - http://www.bohemiancoding.com/sketch -->
    <title>visible</title>
    <desc>Created with Sketch.</desc>
    <defs></defs>
    <g id="V4-numbers" stroke="none" stroke-width="1" fill="none" fill-rule="evenodd">
        <g id="Icons" transform="translate(-788.000000, -159.000000)">
            <g id="visible" transform="translate(778.000000, 146.000000)">
                <g id="Group-2" transform="translate(11.000000, 14.000000)">
                    <g id="Group">
                        <path d="M2.27885899,9.16283257 C1.65357054,8.54944136 1.1260067,7.89359044 0.691683184,7.23658245 C0.427926229,6.83759318 0.251171926,6.5212158 0.158085645,6.32804914 L0,6 L0.158085645,5.67195086 C0.251171926,5.4787842 0.427926229,5.16240682 0.691683184,4.76341755 C1.1260067,4.10640956 1.65357054,3.45055864 2.27885899,2.83716742 C4.08097204,1.06934284 6.32059841,0 9,0 C11.6794016,0 13.919028,1.06934284 15.721141,2.83716742 C16.3464294,3.45055864 16.8739933,4.10640956 17.3083168,4.76341755 C17.5720738,5.16240682 17.7488281,5.4787842 17.8419144,5.67195086 L18,6 L17.8419144,6.32804914 C17.7488281,6.5212158 17.5720738,6.83759318 17.3083168,7.23658245 C16.8739933,7.89359044 16.3464294,8.54944136 15.721141,9.16283257 C13.919028,10.9306572 11.6794016,12 9,12 C6.32059841,12 4.08097204,10.9306572 2.27885899,9.16283257 Z" id="Shape" stroke="#5F6C82" stroke-width="1.7" fill-rule="nonzero"></path>
                        <path d="M9,9 C7.34314575,9 6,7.65685425 6,6 C6,4.34314575 7.34314575,3 9,3 C10.6568543,3 12,4.34314575 12,6 C12,7.65685425 10.6568543,9 9,9 Z" id="Path" fill="#00B0DD"></path>
                    </g>
                </g>
            </g>
        </g>
    </g>
</svg>