<svg xmlns="http://www.w3.org/2000/svg" xmlns:xlink="http://www.w3.org/1999/xlink" width="295" height="258" viewBox="0 0 295 258">
    <defs>
        <linearGradient id="a" x1="50%" x2="50%" y1="0%" y2="100%">
            <stop offset="0%" stop-color="#52B6EF"/>
            <stop offset="100%" stop-color="#228AC8"/>
        </linearGradient>
        <linearGradient id="c" x1="0%" x2="13.399%" y1="50%" y2="50%">
            <stop offset="0%" stop-color="#FFF" stop-opacity=".257"/>
            <stop offset="100%" stop-color="#FFF" stop-opacity="0"/>
        </linearGradient>
        <ellipse id="b" cx="167.736" cy="126.197" rx="125.465" ry="126.197"/>
        <linearGradient id="d" x1="50%" x2="3.32%" y1="91.43%" y2="0%">
            <stop offset="0%" stop-color="#70CBFF"/>
            <stop offset="100%" stop-color="#48ADE7"/>
        </linearGradient>
        <radialGradient id="f" cx="80.945%" cy="11.69%" r="48.187%" fx="80.945%" fy="11.69%" gradientTransform="scale(-1 -.99776) rotate(-45.517 -.279 1.93)">
            <stop offset="0%" stop-color="#FFF" stop-opacity=".5"/>
            <stop offset="100%" stop-color="#FFF" stop-opacity="0"/>
        </radialGradient>
        <ellipse id="e" cx="168.186" cy="126.197" rx="114.223" ry="114.479"/>
        <linearGradient id="g" x1="50%" x2="50%" y1="74.777%" y2="2.907%">
            <stop offset="0%" stop-color="#1876B7" stop-opacity=".665"/>
            <stop offset="100%" stop-color="#51ADE2"/>
        </linearGradient>
        <linearGradient id="h" x1="50%" x2="50%" y1="100%" y2="0%">
            <stop offset="0%" stop-color="#52B6EF"/>
            <stop offset="100%" stop-color="#228AC8"/>
        </linearGradient>
        <linearGradient id="i" x1="100%" x2="0%" y1="50%" y2="50%">
            <stop offset="0%" stop-color="#52B6EF"/>
            <stop offset="100%" stop-color="#228AC8"/>
        </linearGradient>
        <linearGradient id="j" x1="72.391%" x2="50%" y1="88.832%" y2="2.907%">
            <stop offset="0%" stop-color="#2886BF"/>
            <stop offset="100%" stop-color="#59B4E8"/>
        </linearGradient>
        <linearGradient id="k" x1="50%" x2="50%" y1="0%" y2="100%">
            <stop offset="0%" stop-color="#2D3465"/>
            <stop offset="100%" stop-color="#1B1F46"/>
        </linearGradient>
        <linearGradient id="m" x1="50%" x2="50%" y1="0%" y2="100%">
            <stop offset="0%" stop-color="#2F2F2F"/>
            <stop offset="100%" stop-color="#202020"/>
        </linearGradient>
        <rect id="l" width="118.72" height="209.127" rx="9.072"/>
        <filter id="n" width="103.4%" height="101.9%" x="-1.7%" y="-1%" filterUnits="objectBoundingBox">
            <feGaussianBlur in="SourceAlpha" result="shadowBlurInner1" stdDeviation="1.5"/>
            <feOffset dy="1" in="shadowBlurInner1" result="shadowOffsetInner1"/>
            <feComposite in="shadowOffsetInner1" in2="SourceAlpha" k2="-1" k3="1" operator="arithmetic" result="shadowInnerInner1"/>
            <feColorMatrix in="shadowInnerInner1" values="0 0 0 0 1 0 0 0 0 1 0 0 0 0 1 0 0 0 0.203408062 0"/>
        </filter>
        <ellipse id="p" cx="49.017" cy="49.127" rx="49.017" ry="49.127"/>
        <filter id="o" width="128.6%" height="128.5%" x="-14.3%" y="-14.2%" filterUnits="objectBoundingBox">
            <feOffset dy="3" in="SourceAlpha" result="shadowOffsetOuter1"/>
            <feGaussianBlur in="shadowOffsetOuter1" result="shadowBlurOuter1" stdDeviation="2.5"/>
            <feColorMatrix in="shadowBlurOuter1" result="shadowMatrixOuter1" values="0 0 0 0 0 0 0 0 0 0.690196078 0 0 0 0 0.866666667 0 0 0 0.351364357 0"/>
            <feOffset dy="-3" in="SourceAlpha" result="shadowOffsetOuter2"/>
            <feGaussianBlur in="shadowOffsetOuter2" result="shadowBlurOuter2" stdDeviation="2.5"/>
            <feColorMatrix in="shadowBlurOuter2" result="shadowMatrixOuter2" values="0 0 0 0 0 0 0 0 0 0.745098039 0 0 0 0 0.847058824 0 0 0 0.35 0"/>
            <feMerge>
                <feMergeNode in="shadowMatrixOuter1"/>
                <feMergeNode in="shadowMatrixOuter2"/>
            </feMerge>
        </filter>
        <linearGradient id="q" x1="50%" x2="50%" y1="0%" y2="100%">
            <stop offset="0%" stop-color="#8BA3B8"/>
            <stop offset="100%" stop-color="#384C62"/>
        </linearGradient>
        <linearGradient id="r" x1="50%" x2="50%" y1="0%" y2="100%">
            <stop offset="0%" stop-color="#9BB2C7"/>
            <stop offset="100%" stop-color="#384C62"/>
        </linearGradient>
        <linearGradient id="s" x1="50%" x2="50%" y1="0%" y2="100%">
            <stop offset="0%" stop-color="#57C6FB"/>
            <stop offset="100%" stop-color="#33B3F0"/>
        </linearGradient>
    </defs>
    <g fill="none" fill-rule="evenodd">
        <g opacity=".7">
            <g stroke="#FFF" stroke-width=".9" transform="matrix(1 0 0 -1 157.393 226.254)">
                <rect width="9.539" height="71.152" x="4.361" y="1.862" rx="1.8"/>
                <rect width="17.715" height="39.432" x=".273" y=".502" fill="#59BCF5" rx="1.8"/>
            </g>
            <rect width="10.793" height="70.31" x="160.991" y="26.141" stroke="#FFF" stroke-width=".9" rx="1.8"/>
            <use fill="url(#a)" xlink:href="#b"/>
            <use fill="url(#c)" xlink:href="#b"/>
            <use fill="url(#d)" xlink:href="#e"/>
            <use fill="url(#f)" xlink:href="#e"/>
            <path fill="url(#a)" d="M167.736 156.845c-17.137 0-31.029-13.923-31.029-31.099 0-17.175 13.892-31.098 31.03-31.098 17.136 0 31.028 13.923 31.028 31.098 0 17.176-13.892 31.1-31.029 31.1zm.554-8.885c11.935 0 21.61-9.697 21.61-21.658 0-11.962-9.675-21.658-21.61-21.658-11.934 0-21.61 9.696-21.61 21.658 0 11.961 9.676 21.658 21.61 21.658z"/>
            <ellipse cx="167.736" cy="124.845" stroke="#FFF" stroke-width=".9" rx="9.444" ry="9.465"/>
            <path fill="url(#g)" d="M57.716 54.133L38.49 1.308A.9.9 0 0 0 37.336.77l-.87.316a.9.9 0 0 0-.537 1.154l19.253 52.9L3.755 32.241a.9.9 0 0 0-1.188.456l-.377.846a.9.9 0 0 0 .456 1.188l51.28 22.831L1.178 76.761a.9.9 0 0 0-.538 1.154l.316.87a.9.9 0 0 0 1.154.538l52.825-19.227-23.758 50.948a.9.9 0 0 0 .435 1.196l.84.391a.9.9 0 0 0 1.195-.435l23.758-50.948 19.226 52.825a.9.9 0 0 0 1.154.538l.87-.317a.9.9 0 0 0 .537-1.154L59.94 60.24l51.427 22.898a.9.9 0 0 0 1.188-.456l.377-.846a.9.9 0 0 0-.456-1.188l-51.28-22.83 52.747-19.2a.9.9 0 0 0 .538-1.153l-.316-.87a.9.9 0 0 0-1.154-.537L60.186 55.284 83.944 4.336a.9.9 0 0 0-.435-1.196l-.84-.39a.9.9 0 0 0-1.195.434L57.716 54.133z" transform="translate(110.625 68.507)"/>
            <path fill="url(#g)" d="M168.636 18.714a2.588 2.588 0 0 1-2.58-2.597 2.588 2.588 0 0 1 2.58-2.596 2.588 2.588 0 0 1 2.58 2.596 2.588 2.588 0 0 1-2.58 2.597zm16.705 1.323a2.588 2.588 0 0 1-2.142-2.968 2.588 2.588 0 0 1 2.954-2.16 2.588 2.588 0 0 1 2.142 2.967 2.588 2.588 0 0 1-2.954 2.16zm16.294 3.937a2.588 2.588 0 0 1-1.651-3.266 2.588 2.588 0 0 1 3.256-1.672 2.588 2.588 0 0 1 1.651 3.266 2.588 2.588 0 0 1-3.256 1.672zm15.482 6.455a2.588 2.588 0 0 1-1.12-3.485 2.588 2.588 0 0 1 3.477-1.142 2.588 2.588 0 0 1 1.12 3.485 2.588 2.588 0 0 1-3.477 1.142zm14.287 8.812a2.588 2.588 0 0 1-.56-3.617 2.588 2.588 0 0 1 3.613-.584 2.588 2.588 0 0 1 .56 3.617 2.588 2.588 0 0 1-3.613.584zm12.743 10.954a2.588 2.588 0 0 1 .011-3.66 2.588 2.588 0 0 1 3.66-.012 2.588 2.588 0 0 1-.011 3.66 2.588 2.588 0 0 1-3.66.012zM255.03 63.02a2.588 2.588 0 0 1 .584-3.613 2.588 2.588 0 0 1 3.616.56 2.588 2.588 0 0 1-.584 3.614 2.588 2.588 0 0 1-3.616-.561zm8.755 14.38a2.588 2.588 0 0 1 1.142-3.477 2.588 2.588 0 0 1 3.485 1.12 2.588 2.588 0 0 1-1.142 3.478 2.588 2.588 0 0 1-3.485-1.12zm6.413 15.583a2.588 2.588 0 0 1 1.672-3.256 2.588 2.588 0 0 1 3.266 1.651 2.588 2.588 0 0 1-1.672 3.256 2.588 2.588 0 0 1-3.266-1.651zm3.912 16.4a2.588 2.588 0 0 1 2.16-2.954 2.588 2.588 0 0 1 2.968 2.142 2.588 2.588 0 0 1-2.16 2.954 2.588 2.588 0 0 1-2.968-2.142zm1.314 16.814a2.588 2.588 0 0 1 2.597-2.58 2.588 2.588 0 0 1 2.596 2.58 2.588 2.588 0 0 1-2.596 2.58 2.588 2.588 0 0 1-2.597-2.58zm-1.314 16.814a2.588 2.588 0 0 1 2.967-2.142 2.588 2.588 0 0 1 2.161 2.955 2.588 2.588 0 0 1-2.968 2.142 2.588 2.588 0 0 1-2.16-2.955zm-3.912 16.4a2.588 2.588 0 0 1 3.266-1.65 2.588 2.588 0 0 1 1.672 3.255 2.588 2.588 0 0 1-3.266 1.651 2.588 2.588 0 0 1-1.672-3.256zm-6.413 15.583a2.588 2.588 0 0 1 3.485-1.12 2.588 2.588 0 0 1 1.142 3.477 2.588 2.588 0 0 1-3.485 1.12 2.588 2.588 0 0 1-1.142-3.477zm-8.755 14.38a2.588 2.588 0 0 1 3.616-.56 2.588 2.588 0 0 1 .584 3.613 2.588 2.588 0 0 1-3.616.56 2.588 2.588 0 0 1-.584-3.613zM244.147 202.2a2.588 2.588 0 0 1 3.66.011 2.588 2.588 0 0 1 .011 3.66 2.588 2.588 0 0 1-3.66-.011 2.588 2.588 0 0 1-.011-3.66zm-12.743 10.953a2.588 2.588 0 0 1 3.614.584 2.588 2.588 0 0 1-.561 3.617 2.588 2.588 0 0 1-3.614-.584 2.588 2.588 0 0 1 .561-3.617zm-14.287 8.813a2.588 2.588 0 0 1 3.477 1.142 2.588 2.588 0 0 1-1.12 3.484 2.588 2.588 0 0 1-3.477-1.142 2.588 2.588 0 0 1 1.12-3.484zm-15.482 6.454a2.588 2.588 0 0 1 3.256 1.672 2.588 2.588 0 0 1-1.651 3.266 2.588 2.588 0 0 1-3.256-1.671 2.588 2.588 0 0 1 1.651-3.267zm-16.294 3.937a2.588 2.588 0 0 1 2.954 2.161 2.588 2.588 0 0 1-2.142 2.968 2.588 2.588 0 0 1-2.954-2.16 2.588 2.588 0 0 1 2.142-2.969zm-16.705 1.324a2.588 2.588 0 0 1 2.58 2.596 2.588 2.588 0 0 1-2.58 2.596 2.588 2.588 0 0 1-2.58-2.596 2.588 2.588 0 0 1 2.58-2.596zm-16.706-1.324a2.588 2.588 0 0 1 2.142 2.968 2.588 2.588 0 0 1-2.954 2.161 2.588 2.588 0 0 1-2.142-2.968 2.588 2.588 0 0 1 2.954-2.16zm-16.294-3.937a2.588 2.588 0 0 1 1.651 3.267 2.588 2.588 0 0 1-3.255 1.671 2.588 2.588 0 0 1-1.652-3.266 2.588 2.588 0 0 1 3.256-1.672zm-15.481-6.454a2.588 2.588 0 0 1 1.12 3.484 2.588 2.588 0 0 1-3.478 1.142 2.588 2.588 0 0 1-1.12-3.484 2.588 2.588 0 0 1 3.478-1.142zm-14.288-8.813a2.588 2.588 0 0 1 .561 3.617 2.588 2.588 0 0 1-3.613.584 2.588 2.588 0 0 1-.561-3.617 2.588 2.588 0 0 1 3.613-.584zM93.125 202.2a2.588 2.588 0 0 1-.012 3.66 2.588 2.588 0 0 1-3.66.011 2.588 2.588 0 0 1 .012-3.66 2.588 2.588 0 0 1 3.66-.011zm-10.883-12.826a2.588 2.588 0 0 1-.584 3.614 2.588 2.588 0 0 1-3.617-.561 2.588 2.588 0 0 1 .584-3.614 2.588 2.588 0 0 1 3.617.561zm-8.756-14.38a2.588 2.588 0 0 1-1.142 3.477 2.588 2.588 0 0 1-3.484-1.12 2.588 2.588 0 0 1 1.142-3.477 2.588 2.588 0 0 1 3.484 1.12zm-6.412-15.583a2.588 2.588 0 0 1-1.672 3.256 2.588 2.588 0 0 1-3.267-1.651 2.588 2.588 0 0 1 1.672-3.256 2.588 2.588 0 0 1 3.267 1.651zm-3.912-16.4a2.588 2.588 0 0 1-2.16 2.955 2.588 2.588 0 0 1-2.969-2.142 2.588 2.588 0 0 1 2.16-2.955 2.588 2.588 0 0 1 2.969 2.142zm-1.315-16.814a2.588 2.588 0 0 1-2.596 2.58 2.588 2.588 0 0 1-2.596-2.58 2.588 2.588 0 0 1 2.596-2.58 2.588 2.588 0 0 1 2.596 2.58zm1.315-16.814a2.588 2.588 0 0 1-2.968 2.142 2.588 2.588 0 0 1-2.16-2.954A2.588 2.588 0 0 1 61 106.429a2.588 2.588 0 0 1 2.16 2.954zm3.912-16.4a2.588 2.588 0 0 1-3.267 1.651 2.588 2.588 0 0 1-1.672-3.256 2.588 2.588 0 0 1 3.267-1.65 2.588 2.588 0 0 1 1.672 3.255zM73.486 77.4a2.588 2.588 0 0 1-3.484 1.12 2.588 2.588 0 0 1-1.142-3.478 2.588 2.588 0 0 1 3.484-1.12 2.588 2.588 0 0 1 1.142 3.478zm8.756-14.381a2.588 2.588 0 0 1-3.617.561 2.588 2.588 0 0 1-.584-3.613 2.588 2.588 0 0 1 3.617-.561 2.588 2.588 0 0 1 .584 3.613zm10.883-12.825a2.588 2.588 0 0 1-3.66-.012 2.588 2.588 0 0 1-.012-3.66 2.588 2.588 0 0 1 3.66.012 2.588 2.588 0 0 1 .012 3.66zm12.742-10.954a2.588 2.588 0 0 1-3.613-.584 2.588 2.588 0 0 1 .56-3.617 2.588 2.588 0 0 1 3.614.584 2.588 2.588 0 0 1-.561 3.617zm14.288-8.812a2.588 2.588 0 0 1-3.478-1.142 2.588 2.588 0 0 1 1.12-3.485 2.588 2.588 0 0 1 3.478 1.142 2.588 2.588 0 0 1-1.12 3.485zm15.481-6.455a2.588 2.588 0 0 1-3.256-1.672 2.588 2.588 0 0 1 1.652-3.266 2.588 2.588 0 0 1 3.255 1.672 2.588 2.588 0 0 1-1.65 3.266zm16.294-3.937a2.588 2.588 0 0 1-2.954-2.16 2.588 2.588 0 0 1 2.142-2.969 2.588 2.588 0 0 1 2.954 2.161 2.588 2.588 0 0 1-2.142 2.968z"/>
            <path fill="url(#a)" d="M21.137 123.493h120.966a.9.9 0 0 1 .9.9v2.707a.9.9 0 0 1-.9.9H21.137a2.25 2.25 0 0 1-2.25-2.25v-.007a2.25 2.25 0 0 1 2.25-2.25zM23.384 33.352h13.491v16.225H23.384z"/>
            <path fill="url(#h)" d="M23.384 201.915h13.491v16.225H23.384z"/>
            <path fill="url(#a)" d="M4.497 104.563h17.988v41.465H4.497z"/>
            <path fill="url(#a)" d="M0 115.38h23.384v18.93H0z"/>
            <g fill="url(#a)" transform="rotate(-45 200.25 -165.077)">
                <path d="M111.393 0h19.018v38.761h-19.018z"/>
                <path d="M111.393 10.693h19.018v17.375h-19.018zM0 17.375h111.393v4.01H0z"/>
            </g>
            <g fill="url(#a)" transform="scale(1 -1) rotate(-50 -84.335 -265.332)">
                <path d="M106.96 0h18.955v38.761H106.96z"/>
                <path d="M106.96 10.693h18.955v17.375H106.96zM0 17.375h106.96v4.01H0z"/>
            </g>
            <path fill="url(#a)" d="M258.575 140.62c-6.21 0-11.243-5.045-11.243-11.268 0-6.223 5.034-11.267 11.243-11.267 6.209 0 11.242 5.044 11.242 11.267s-5.033 11.268-11.242 11.268zm0-4.226c3.88 0 7.026-3.153 7.026-7.042 0-3.89-3.146-7.042-7.026-7.042s-7.027 3.153-7.027 7.042c0 3.89 3.146 7.042 7.027 7.042z"/>
            <path fill="url(#i)" d="M53.057 183.044V68.236H16.189v-18.95h36.868v-9.65c0-9.445 7.656-17.1 17.1-17.1h62.222v207.323H70.157c-9.444 0-17.1-7.656-17.1-17.1v-10.766H16.189v-18.949h36.868zm79.322-160.509l26.813 7.808v18.944H132.38V22.535zm0 207.324v-26.751h24.85v18.944l-24.85 7.807z"/>
            <rect width="17.988" height="38.761" x="157.393" y="24.338" fill="url(#a)" rx="1.8"/>
            <path fill="url(#j)" d="M259.89 126.431l-8.915-17.496a1.35 1.35 0 0 0-1.816-.59l-1.331.679a1.35 1.35 0 0 0-.59 1.815l9.014 17.692-17.195 9.928a1.35 1.35 0 0 0-.494 1.844l.747 1.294a1.35 1.35 0 0 0 1.844.494l17.005-9.818 8.915 17.496a1.35 1.35 0 0 0 1.815.59l1.332-.678a1.35 1.35 0 0 0 .59-1.816l-9.015-17.692 17.196-9.928a1.35 1.35 0 0 0 .494-1.844l-.747-1.294a1.35 1.35 0 0 0-1.844-.494l-17.005 9.818z"/>
        </g>
        <g transform="translate(65.655 28.845)">
            <use fill="url(#k)" xlink:href="#l"/>
            <use fill="#161616" xlink:href="#l"/>
            <use fill="url(#m)" xlink:href="#l"/>
            <use fill="#000" filter="url(#n)" xlink:href="#l"/>
            <rect width="107.027" height="162.254" x="6.296" y="20.732" fill="#E8EDF3" rx="3.6"/>
            <ellipse cx="58.597" cy="196.324" fill="#3D4050" rx="6.483" ry="6.419"/>
            <rect width="19.067" height="2.266" x="49.064" y="9.696" fill="#0E1121" rx="1.133"/>
            <ellipse cx="44.97" cy="10.817" fill="#58B5EA" rx="1" ry="1"/>
            <path fill="#00B0DD" d="M61.478 95.214c2.292-2.472.542-6.536-2.88-6.536-3.425 0-5.174 4.064-2.882 6.536 1.26 1.36 1.886 2.952 1.886 4.802 0 1.855-.622 3.444-1.886 4.808-2.292 2.473-.543 6.536 2.881 6.536 3.423 0 5.173-4.063 2.881-6.536-1.26-1.36-1.886-2.951-1.886-4.801 0-1.855.622-3.445 1.886-4.809m-18.412-23.64c2.164 0 3.918-1.745 3.918-3.897 0-2.151-1.754-3.896-3.918-3.896s-3.917 1.745-3.917 3.896c0 2.152 1.753 3.896 3.917 3.896m33.942 13.62c2.293-2.474.543-6.537-2.881-6.537s-5.173 4.064-2.881 6.536c1.26 1.36 1.886 2.951 1.886 4.802 0 1.854-.622 3.444-1.886 4.808-2.292 2.473-.543 6.536 2.88 6.536 3.425 0 5.175-4.064 2.882-6.536-1.26-1.36-1.886-2.952-1.886-4.802 0-1.854.622-3.444 1.886-4.808m-2.882-13.619c2.164 0 3.918-1.744 3.918-3.896 0-2.151-1.754-3.896-3.918-3.896-2.163 0-3.917 1.745-3.917 3.896 0 2.152 1.754 3.896 3.917 3.896m-28.178 13.62c2.292-2.474.543-6.537-2.881-6.537s-5.173 4.064-2.882 6.536c1.262 1.36 1.886 2.951 1.886 4.802 0 1.854-.621 3.444-1.885 4.808-2.292 2.473-.543 6.536 2.881 6.536s5.173-4.064 2.88-6.536c-1.26-1.36-1.885-2.952-1.885-4.802 0-1.854.622-3.444 1.886-4.808m12.648-3.596c2.164 0 3.918-1.745 3.918-3.897 0-2.151-1.754-3.896-3.918-3.896-2.163 0-3.917 1.745-3.917 3.896 0 2.152 1.754 3.897 3.917 3.897"/>
        </g>
        <g transform="translate(157.393 151.437)">
            <use fill="#000" filter="url(#o)" xlink:href="#p"/>
            <use fill="#1A2134" xlink:href="#p"/>
        </g>
        <g transform="translate(178.4 168.982)">
            <path stroke="#292E48" stroke-width="4.212" d="M27.41 66.352C9.405 61.004-.398 44.093-2.102 16.138l-.136-2.234H0c6.347 0 15.288-5.11 26.587-15.457l1.423-1.303 1.422 1.303C40.73 8.793 49.672 13.904 56.019 13.904h2.238l-.136 2.234C56.417 44.093 46.614 61.004 28.61 66.352l-.6.178-.599-.178z"/>
            <path fill="url(#q)" d="M28.01 0v64.333C10.993 59.279 1.656 43.17 0 16.01c7.017 0 16.354-5.337 28.01-16.01z"/>
            <path fill="url(#r)" d="M56.02 0v64.333C39.001 59.279 29.665 43.17 28.01 16.01c7.017 0 16.353-5.337 28.01-16.01z" opacity=".621" transform="matrix(-1 0 0 1 84.029 0)"/>
            <ellipse cx="28.01" cy="32.166" fill="url(#s)" rx="16.806" ry="16.782"/>
            <path stroke="#FFF" stroke-linecap="round" stroke-linejoin="round" stroke-width="2.808" d="M21.007 33.057l5.42 6.712 8.585-14.036"/>
        </g>
    </g>
</svg>
