<?xml version="1.0" encoding="UTF-8"?>
<svg width="38px" height="38px" viewBox="0 0 38 38" version="1.1" xmlns="http://www.w3.org/2000/svg" xmlns:xlink="http://www.w3.org/1999/xlink">
    <!-- Generator: Sketch 49 (51002) - http://www.bohemiancoding.com/sketch -->
    <title>qr</title>
    <desc>Created with Sketch.</desc>
    <defs>
        <rect id="path-1" x="0.161928281" y="0.187884197" width="37.6823756" height="37.5951201" rx="1.80254118"></rect>
    </defs>
    <g id="Screens" stroke="none" stroke-width="1" fill="none" fill-rule="evenodd">
        <g id="backup" transform="translate(-392.000000, -223.000000)">
            <g id="qr" transform="translate(392.000000, 223.000000)">
                <g id="QR">
                    <g id="Rectangle">
                        <use fill="#FFFFFF" fill-rule="evenodd" xlink:href="#path-1"></use>
                        <rect stroke="#73819B" stroke-width="1.12658824" x="0.725222399" y="0.751178315" width="36.5557874" height="36.4685318" rx="1.80254118"></rect>
                    </g>
                </g>
                <g transform="translate(5.000000, 5.000000)" fill="#00B0DD">
                    <path d="M2.38,2.38 L2.38,10.22 L10.22,10.22 L10.22,2.38 L2.38,2.38 Z M1.4,0 L11.2,0 C11.9731986,-1.42034288e-16 12.6,0.62680135 12.6,1.4 L12.6,11.2 C12.6,11.9731986 11.9731986,12.6 11.2,12.6 L1.4,12.6 C0.62680135,12.6 9.46895252e-17,11.9731986 0,11.2 L0,1.4 C-9.46895252e-17,0.62680135 0.62680135,1.42034288e-16 1.4,0 Z" id="Rectangle-10" fill-rule="nonzero"></path>
                    <path d="M2.38,25.62 L10.22,25.62 L10.22,17.78 L2.38,17.78 L2.38,25.62 Z M1.4,15.4 L11.2,15.4 C11.9731986,15.4 12.6,16.0268014 12.6,16.8 L12.6,26.6 C12.6,27.3731986 11.9731986,28 11.2,28 L1.4,28 C0.62680135,28 9.46895252e-17,27.3731986 0,26.6 L0,16.8 C-9.46895252e-17,16.0268014 0.62680135,15.4 1.4,15.4 Z" id="Rectangle-10-Copy" fill-rule="nonzero"></path>
                    <path d="M17.78,2.38 L17.78,10.22 L25.62,10.22 L25.62,2.38 L17.78,2.38 Z M16.8,0 L26.6,0 C27.3731986,-1.42034288e-16 28,0.62680135 28,1.4 L28,11.2 C28,11.9731986 27.3731986,12.6 26.6,12.6 L16.8,12.6 C16.0268014,12.6 15.4,11.9731986 15.4,11.2 L15.4,1.4 C15.4,0.62680135 16.0268014,1.42034288e-16 16.8,0 Z" id="Rectangle-10-Copy-2" fill-rule="nonzero"></path>
                    <rect id="Rectangle-11" x="4.2" y="4.2" width="4.2" height="4.2"></rect>
                    <rect id="Rectangle-11-Copy-2" x="4.2" y="19.6" width="4.2" height="4.2"></rect>
                    <rect id="Rectangle-11-Copy" x="19.6" y="4.2" width="4.2" height="4.2"></rect>
                    <rect id="Rectangle-12" x="15.4" y="15.4" width="4.2" height="4.2"></rect>
                    <rect id="Rectangle-12-Copy" x="23.8" y="15.4" width="4.2" height="4.2"></rect>
                    <rect id="Rectangle-12-Copy-2" x="23.8" y="23.8" width="4.2" height="4.2"></rect>
                    <rect id="Rectangle-12-Copy-3" x="15.4" y="23.8" width="4.2" height="4.2"></rect>
                    <rect id="Rectangle-12-Copy-4" x="19.6" y="19.6" width="4.2" height="4.2"></rect>
                </g>
            </g>
        </g>
    </g>
</svg>