<?xml version="1.0" encoding="iso-8859-1"?>
<!-- Generator: Adobe Illustrator 19.0.0, SVG Export Plug-In . SVG Version: 6.00 Build 0)  -->
<svg version="1.1" id="Layer_1" xmlns="http://www.w3.org/2000/svg" xmlns:xlink="http://www.w3.org/1999/xlink" x="0px" y="0px"
	 viewBox="0 0 512 512" style="enable-background:new 0 0 512 512;" xml:space="preserve">
<g>
	<g>
		<path d="M295.74,241.86c-26.615-26.615-69.931-26.615-96.546,0c-26.615,26.615-26.615,69.922,0,96.538
			c13.312,13.312,30.788,19.959,48.273,19.959s34.97-6.656,48.273-19.959C322.355,311.782,322.355,268.476,295.74,241.86z
			 M283.674,326.34c-19.968,19.942-52.446,19.959-72.414,0c-19.959-19.959-19.959-52.446,0-72.405
			c9.984-9.975,23.091-14.967,36.207-14.967c13.107,0,26.223,4.992,36.207,14.967C303.633,273.894,303.633,306.372,283.674,326.34z"
			/>
	</g>
</g>
<g>
	<g>
		<path d="M271.599,281.6H256v-15.607c0-4.71-3.814-8.533-8.533-8.533s-8.533,3.823-8.533,8.533V281.6h-15.599
			c-4.719,0-8.533,3.823-8.533,8.533c0,4.71,3.814,8.533,8.533,8.533h15.599v15.607c0,4.71,3.814,8.533,8.533,8.533
			s8.533-3.823,8.533-8.533v-15.607h15.599c4.719,0,8.533-3.823,8.533-8.533C280.132,285.423,276.318,281.6,271.599,281.6z"/>
	</g>
</g>
<g>
	<g>
		<path d="M418.133,68.267H51.2c-4.71,0-8.533,3.823-8.533,8.533s3.823,8.533,8.533,8.533h366.933c4.71,0,8.533-3.823,8.533-8.533
			S422.844,68.267,418.133,68.267z"/>
	</g>
</g>
<g>
	<g>
		<path d="M503.467,238.933h-8.533v-128c0-4.71-3.823-8.533-8.533-8.533h-25.6V42.667c0-4.71-3.823-8.533-8.533-8.533h-409.6
			C19.14,34.133,0,53.274,0,76.8v392.533c0,4.71,3.823,8.533,8.533,8.533H486.4c4.71,0,8.533-3.823,8.533-8.533v-128h8.533
			c4.71,0,8.533-3.823,8.533-8.533v-85.333C512,242.756,508.177,238.933,503.467,238.933z M42.667,51.2h401.067v51.2H42.667
			c-14.114,0-25.6-11.486-25.6-25.6S28.553,51.2,42.667,51.2z M477.867,460.8h-460.8V110.711c7.151,5.419,15.957,8.755,25.6,8.755
			h435.2v119.467h-51.2c-28.237,0-51.2,22.963-51.2,51.2c0,28.237,22.963,51.2,51.2,51.2h51.2V460.8z M494.933,324.267h-68.267
			c-18.825,0-34.133-15.309-34.133-34.133c0-18.825,15.309-34.133,34.133-34.133h68.267V324.267z"/>
	</g>
</g>
<g>
</g>
<g>
</g>
<g>
</g>
<g>
</g>
<g>
</g>
<g>
</g>
<g>
</g>
<g>
</g>
<g>
</g>
<g>
</g>
<g>
</g>
<g>
</g>
<g>
</g>
<g>
</g>
<g>
</g>
</svg>
