<svg xmlns="http://www.w3.org/2000/svg" xmlns:xlink="http://www.w3.org/1999/xlink" width="193" height="194" viewBox="0 0 193 194">
    <defs>
        <linearGradient id="a" x1="50%" x2="50%" y1="0%" y2="100%">
            <stop offset="0%" stop-color="#E3E6E9"/>
            <stop offset="100%" stop-color="#85909A"/>
        </linearGradient>
        <linearGradient id="b" x1="12.428%" x2="92.235%" y1="0%" y2="100%">
            <stop offset="0%" stop-color="#F5F7FA"/>
            <stop offset="100%" stop-color="#E8EDF3"/>
        </linearGradient>
        <linearGradient id="c" x1="8.315%" x2="63.921%" y1="21.063%" y2="68.151%">
            <stop offset="0%" stop-color="#E8EDF3"/>
            <stop offset="100%" stop-color="#C2C8CE"/>
        </linearGradient>
        <path id="e" d="M97.215 112.319l79.369 66.617a4 4 0 0 1-2.572 7.064H4.988a4 4 0 0 1-2.572-7.064l79.37-66.617a12 12 0 0 1 15.429 0z"/>
        <filter id="d" width="113.6%" height="131.4%" x="-6.8%" y="-15.7%" filterUnits="objectBoundingBox">
            <feOffset in="SourceAlpha" result="shadowOffsetOuter1"/>
            <feGaussianBlur in="shadowOffsetOuter1" result="shadowBlurOuter1" stdDeviation="4"/>
            <feColorMatrix in="shadowBlurOuter1" values="0 0 0 0 0 0 0 0 0 0 0 0 0 0 0 0 0 0 0.161514946 0"/>
        </filter>
    </defs>
    <g fill="none" fill-rule="evenodd">
        <path fill="url(#a)" d="M0 54L89.5.602 177 54v76H0z" transform="translate(7)"/>
        <path fill="url(#b)" d="M21 19h139a4 4 0 0 1 4 4v135H17V23a4 4 0 0 1 4-4z" transform="translate(7)"/>
        <path fill="#00B0DD" d="M99.093 78.747c2.062-2.182.487-5.77-2.593-5.77-3.081 0-4.655 3.588-2.593 5.77 1.135 1.201 1.697 2.606 1.697 4.239 0 1.637-.56 3.04-1.697 4.244C91.845 89.413 93.42 93 96.5 93c3.08 0 4.655-3.587 2.593-5.77-1.135-1.2-1.698-2.605-1.698-4.238 0-1.637.56-3.041 1.698-4.245M82.525 57.88c1.947 0 3.525-1.54 3.525-3.44 0-1.899-1.578-3.439-3.525-3.439C80.578 51 79 52.54 79 54.44c0 1.899 1.578 3.439 3.525 3.439M113.067 69.9c2.063-2.182.488-5.77-2.593-5.77-3.08 0-4.655 3.588-2.592 5.77 1.134 1.201 1.696 2.606 1.696 4.239 0 1.637-.56 3.04-1.696 4.244-2.063 2.183-.489 5.77 2.592 5.77 3.08 0 4.656-3.587 2.593-5.77-1.135-1.2-1.697-2.605-1.697-4.238 0-1.637.56-3.041 1.697-4.245m-2.594-12.021c1.948 0 3.526-1.54 3.526-3.44 0-1.899-1.578-3.439-3.526-3.439-1.946 0-3.525 1.54-3.525 3.44 0 1.899 1.579 3.439 3.525 3.439M85.118 69.9c2.063-2.182.488-5.77-2.592-5.77-3.081 0-4.655 3.588-2.593 5.77 1.135 1.201 1.697 2.606 1.697 4.239 0 1.637-.56 3.04-1.697 4.244-2.062 2.183-.488 5.77 2.593 5.77 3.08 0 4.655-3.587 2.592-5.77-1.134-1.2-1.697-2.605-1.697-4.238 0-1.637.56-3.041 1.697-4.245M96.5 66.726c1.947 0 3.526-1.54 3.526-3.44s-1.579-3.44-3.526-3.44c-1.947 0-3.525 1.54-3.525 3.44s1.578 3.44 3.525 3.44"/>
        <path fill="url(#c)" d="M0 53.343l80 69.216v63.447H4a4 4 0 0 1-4-4V53.343zM178 53.4v128.662a4 4 0 0 1-4 4H98v-63.446L178 53.4z" transform="translate(7)"/>
        <g transform="translate(7)">
            <use fill="#000" filter="url(#d)" xlink:href="#e"/>
            <use fill="#E8EDF3" xlink:href="#e"/>
        </g>
    </g>
</svg>
