<?xml version="1.0" encoding="utf-8"?>
<!-- Generator: Adobe Illustrator 22.0.1, SVG Export Plug-In . SVG Version: 6.00 Build 0)  -->
<svg version="1.1" id="Layer_1" xmlns="http://www.w3.org/2000/svg" xmlns:xlink="http://www.w3.org/1999/xlink" x="0px" y="0px"
	 viewBox="0 0 30 26" style="enable-background:new 0 0 30 26;" xml:space="preserve">
<style type="text/css">
	.st0{clip-path:url(#SVGID_2_);}
	.st1{clip-path:url(#SVGID_4_);fill:#FFFFFF;}
</style>
<g>
	<defs>
		<path id="SVGID_1_" d="M22.1,12.7c0,1-0.3,1.9-0.8,2.7l2.5,2.5c0.4,0.4,0.4,1,0,1.4c-0.4,0.4-1,0.4-1.4,0l-2.5-2.5
			c-0.8,0.5-1.7,0.8-2.7,0.8c-1,0-1.9-0.3-2.7-0.8L12,19.3c-0.4,0.4-1,0.4-1.4,0c-0.4-0.4-0.4-1,0-1.4l2.5-2.5
			c-0.5-0.8-0.8-1.7-0.8-2.7c0-1,0.3-1.9,0.8-2.7l-2.5-2.5c-0.4-0.4-0.4-1,0-1.4c0.4-0.4,1-0.4,1.4,0l2.5,2.5
			c0.8-0.5,1.7-0.8,2.7-0.8c1,0,1.9,0.3,2.7,0.8l2.5-2.5c0.4-0.4,1-0.4,1.4,0c0.4,0.4,0.4,1,0,1.4L21.3,10
			C21.8,10.8,22.1,11.7,22.1,12.7z M27.1,0H6.9C5.3,0,4,1.3,4,2.9V4H1C0.4,4,0,4.4,0,5v6c0,0.5,0.4,1,1,1h3v2H1c-0.5,0-1,0.4-1,1v6
			c0,0.5,0.4,1,1,1h3v1.1C4,24.7,5.3,26,6.9,26h20.1c1.6,0,2.9-1.3,2.9-2.9V2.9C30,1.3,28.7,0,27.1,0z"/>
	</defs>
	<clipPath id="SVGID_2_">
		<use xlink:href="#SVGID_1_"  style="overflow:visible;"/>
	</clipPath>
	<g class="st0">
		<defs>
			<rect id="SVGID_3_" x="-300" y="-524" width="1200" height="800"/>
		</defs>
		<clipPath id="SVGID_4_">
			<use xlink:href="#SVGID_3_"  style="overflow:visible;"/>
		</clipPath>
		<rect x="-5" y="-5" class="st1" width="40" height="36"/>
	</g>
</g>
</svg>
